<svg version="1.1" id="Layer_1" xmlns="http://www.w3.org/2000/svg" xmlns:xlink="http://www.w3.org/1999/xlink" x="0px" y="0px" viewBox="0 0 500 500" style="width: 181px;" xml:space="preserve" data-imageid="explosion-89" imageName="Explosion" class="illustrations_image">
<style type="text/css">
	.st0_explosion-89{fill:#68E1FD;}
	.st1_explosion-89{opacity:0.2;fill:#284684;enable-background:new    ;}
	.st2_explosion-89{fill:#FF7703;}
	.st3_explosion-89{fill:#FFCE31;}
	.st4_explosion-89{fill:#FF8E06;}
	.st5_explosion-89{fill:#FFA52E;}
	.st6_explosion-89{opacity:0.55;}
	.st7_explosion-89{fill:#FFFFFF;}
</style>
<path id="field_explosion-89" class="st0_explosion-89 targetColor" d="M243.2,422L28.1,294.9c-6.9-3.8-12.7-10.1-6-14.3l215.9-124.4c3.2-2,8.2-3.3,11.4-1.4l225.8,131&#10;&#9;c6.9,4,8.1,15.1,1.2,19.1l-204.8,117C262.8,426.9,252,427,243.2,422z" style="fill: rgb(104, 225, 253);"/>
<g id="explosion_explosion-89">
	<path class="st1_explosion-89" d="M377.6,260.3c-2.3-1.9-4.7-3.7-7.2-5.4c-44.3-29.3-105-32.9-156.5-27.2c-40.4,4.5-126.7,31.7-97.6,88.8&#10;&#9;&#9;c8,15.7,23,26.6,38.9,34.1c59.9,28.3,153.2,24,210.9-8.6c14.1-8,26.5-19.8,29.6-36.4C399,287.8,391.1,271.6,377.6,260.3z"/>
	<path class="st2_explosion-89" d="M308.6,292.6c0.8-2.3,0.4-4.9-1.1-6.8c-1.8-2.2-4.4-3.6-7.2-3.8c0.5-3.8-2.1-7.9-6-9.8&#10;&#9;&#9;c-2.6-1.3-5.6-1.6-8.3-0.8c-0.9-2.8-3.3-4.9-6.2-5.4c-2.8-0.7-5.7-0.6-8.4,0.2c-1-2.4-3.2-4.1-7-4.4c-2.7-0.2-6.1-0.1-8.6,1.1&#10;&#9;&#9;c-3.1-2.5-6.6-3.3-11.1-2.3c-2.4,0.4-4.5,1.5-6.3,3.1c-3.2-2-7.8-1.7-11.7-0.3c-2.9,1-6,2.8-7.4,5.1c-4-0.2-8.1,1-11.3,3.4&#10;&#9;&#9;c-1.9,1.6-2.9,4-2.6,6.5c-3.4,1.1-6.8,3.4-7.6,6.3c-0.6,2.3-0.2,4.8,1,6.9c-3.7,1.8-5.4,5.6-4.1,9.2c1.1,2.5,2.9,4.5,5.3,5.8&#10;&#9;&#9;c-1.2,2.7-0.3,6,2.3,7.6c2.6,1.9,5.7,2.9,8.9,2.8c1,1.3,2.2,2.3,3.6,3.1c3,1.5,6.3,2.4,9.7,2.4c0.3,0,0.7,0,1-0.1&#10;&#9;&#9;c0.5,0.5,1,1,1.6,1.3c2.5,1.5,5.5,1.8,8.3,1c4.6,3.4,10.8,3.8,15.8,1.1c2.4,1.8,5.4,2.6,8.4,2.3c2.6-0.4,5-1.7,6.7-3.6&#10;&#9;&#9;c2.2,0.6,4.4,0.9,6.7,0.8c3,0.1,6-1,8-3.2c2.3,1,4.9,1.1,7.3,0.3c2.6-0.9,4.9-2.7,6.3-5.1c2.8,0.8,5.9,0.5,8.5-0.8&#10;&#9;&#9;c2.8-1.7,4.5-4.7,4.4-8c3-1,5.4-3.3,6.5-6.2C315.5,298,313,293.9,308.6,292.6z M261.5,266.6c0.7,0,1.5,0.1,2,0.1&#10;&#9;&#9;c1.4,0.1,2.1,0.5,2.4,1.2C264.4,267.6,262.9,267.1,261.5,266.6L261.5,266.6z M286.8,297.8c0.1-0.3,0.1-0.6,0.1-0.9&#10;&#9;&#9;c0.1,0.2,0.1,0.4,0.2,0.6C287.1,297.5,287,297.7,286.8,297.8L286.8,297.8z M288.2,280c-0.4-0.3-0.7-0.5-1.1-0.8&#10;&#9;&#9;c0.5,0,1,0.1,1.5,0.2C288.4,279.6,288.3,279.8,288.2,280z"/>
	<path class="st3_explosion-89" d="M256.7,233.7c-5.6-4.5-15.4-3.2-18.6,3.8V294c0,0,0,0,0.1,0.1c0.6,2.7,4.3,2.3,6.2,3.7&#10;&#9;&#9;c4.3,4.1,11,4.2,16.6,2.6c6.5,0.9,10.8,0.4,10.8-8v-47.7C271.9,235.6,263.5,232,256.7,233.7z"/>
	<path class="st2_explosion-89" d="M295.4,220.1c0.6-1.8,0.3-3.9-0.9-5.4c-1.4-1.7-3.4-2.8-5.6-3c0.3-3-1.7-6.2-4.6-7.8c-2-1-4.3-1.2-6.4-0.7&#10;&#9;&#9;c-0.7-2.2-2.5-3.8-4.8-4.3c-2.1-0.5-4.4-0.5-6.5,0.2c-0.8-1.9-2.5-3.2-5.4-3.5c-2.2-0.3-4.5,0-6.6,0.9c-2.4-2-5.1-2.6-8.6-1.8&#10;&#9;&#9;c-1.8,0.3-3.5,1.2-4.9,2.5c-2.5-1.6-6-1.3-9-0.2c-2.2,0.8-4.6,2.2-5.7,4c-3.1-0.2-6.2,0.8-8.7,2.7c-1.5,1.3-2.3,3.2-2,5.1&#10;&#9;&#9;c-2.6,0.9-5.2,2.7-5.9,5c-0.5,1.9-0.2,3.8,0.8,5.5c-2.8,1.2-4.2,4.4-3.2,7.3c0.8,2,2.3,3.6,4.1,4.6c-1,2.2-0.2,4.7,1.8,6&#10;&#9;&#9;c2,1.5,4.4,2.3,6.9,2.2c0.7,1,1.7,1.8,2.8,2.4c2.3,1.2,4.9,1.9,7.5,1.9c0.3,0,0.5,0,0.8-0.1c0.4,0.4,0.8,0.7,1.2,1&#10;&#9;&#9;c1.9,1.2,4.2,1.5,6.4,0.8c3.5,2.7,8.3,3,12.2,0.9c1.8,1.4,4.2,2.1,6.5,1.8c2-0.3,3.8-1.3,5.2-2.9c1.7,0.5,3.4,0.7,5.2,0.7&#10;&#9;&#9;c2.3,0.1,4.6-0.8,6.2-2.5c1.8,0.8,3.8,0.9,5.6,0.2c2.1-0.7,3.8-2.1,4.9-4c2.2,0.7,4.6,0.4,6.6-0.6c2.2-1.4,3.4-3.8,3.4-6.4&#10;&#9;&#9;c2.3-0.8,4.2-2.7,5-5C300.7,224.4,298.7,221.1,295.4,220.1z M259,199.4c0.6,0,1.1,0.1,1.5,0.1c1.1,0.1,1.6,0.4,1.9,0.9&#10;&#9;&#9;C261.2,200.2,260.1,199.9,259,199.4z M278.6,224.2c0.1-0.2,0.1-0.5,0.1-0.7c0,0.1,0.1,0.3,0.1,0.5&#10;&#9;&#9;C278.7,224,278.6,224.1,278.6,224.2L278.6,224.2z M279.6,210.1l-0.9-0.6c0.4,0,0.8,0.1,1.2,0.2&#10;&#9;&#9;C279.8,209.7,279.7,209.9,279.6,210.1L279.6,210.1z"/>
	<path class="st4_explosion-89" d="M284.6,219.6c0.4-1.3,0.2-2.8-0.6-3.9c-1-1.3-2.4-2-4-2.2c0.1-2.4-1.2-4.6-3.4-5.6c-1.4-0.7-3.1-0.9-4.6-0.5&#10;&#9;&#9;c-0.5-1.6-1.8-2.8-3.5-3.1c-1.5-0.4-3.2-0.3-4.7,0.1c-0.7-1.6-2.2-2.5-3.9-2.5c-1.6-0.2-3.3,0-4.8,0.6c-1.7-1.4-4.1-1.9-6.2-1.3&#10;&#9;&#9;c-1.3,0.2-2.5,0.9-3.5,1.8c-1.8-1.2-4.4-1-6.5-0.2c-1.7,0.5-3.1,1.5-4.1,2.9c-2.3-0.1-4.5,0.6-6.3,1.9c-1.1,0.9-1.6,2.3-1.4,3.7&#10;&#9;&#9;c-1.9,0.6-3.8,2-4.3,3.6c-0.3,1.4-0.1,2.8,0.6,4c-2,0.9-3,3.2-2.3,5.3c0.6,1.4,1.6,2.6,3,3.3c-0.7,1.6-0.2,3.4,1.3,4.3&#10;&#9;&#9;c1.4,1.1,3.2,1.7,5,1.6c0.5,0.7,1.2,1.3,2,1.8c1.7,0.9,3.5,1.4,5.4,1.4c0.2,0,0.4,0,0.6-0.1c0.3,0.3,0.6,0.5,0.9,0.8&#10;&#9;&#9;c1.4,0.8,3.1,1,4.6,0.6c2.6,2,6,2.2,8.8,0.6c1.3,1,3,1.5,4.7,1.3c1.5-0.2,2.8-1,3.8-2.1c1.2,0.4,2.5,0.5,3.7,0.5&#10;&#9;&#9;c1.7,0.1,3.3-0.6,4.5-1.9c1.3,0.6,2.7,0.6,4.1,0.2c1.5-0.5,2.7-1.5,3.5-2.9c1.6,0.5,3.3,0.3,4.8-0.5c1.6-1,2.5-2.7,2.4-4.6&#10;&#9;&#9;c1.7-0.6,3-1.9,3.6-3.6c0.8-2.2-0.3-4.5-2.5-5.3C285,219.7,284.8,219.7,284.6,219.6z M258.3,204.7c0.4,0,0.8,0,1.1,0.1&#10;&#9;&#9;c0.8,0.1,1.2,0.3,1.3,0.7C259.9,205.3,259.1,205,258.3,204.7z M272.5,222.6c0-0.2,0.1-0.4,0.1-0.5l0.1,0.3L272.5,222.6z&#10;&#9;&#9; M273.2,212.4c-0.2-0.2-0.4-0.3-0.6-0.5c0.3,0,0.6,0.1,0.9,0.1C273.4,212.2,273.3,212.3,273.2,212.4z"/>
	<path class="st5_explosion-89" d="M277.7,220c0.3-0.8,0.2-1.8-0.5-2.4c-0.8-0.8-2-1.3-3.1-1.3c0.2-1.3-0.9-2.8-2.6-3.4c-1.1-0.4-2.4-0.5-3.6-0.3&#10;&#9;&#9;c-0.5-1-1.5-1.8-2.7-1.9c-1.2-0.2-2.4-0.2-3.6,0.1c-0.5-0.8-1.4-1.4-3-1.5c-1.2-0.1-2.5,0-3.7,0.4c-1.4-0.9-3.2-1.2-4.8-0.8&#10;&#9;&#9;c-1,0.1-1.9,0.5-2.7,1.1c-1.6-0.6-3.4-0.7-5-0.1c-1.2,0.3-2.3,0.9-3.2,1.8c-1.7-0.1-3.4,0.3-4.9,1.2c-0.8,0.5-1.2,1.4-1.1,2.3&#10;&#9;&#9;c-1.5,0.4-2.9,1.2-3.3,2.2c-0.3,0.8-0.1,1.7,0.4,2.4c-1.6,0.6-2.3,2-1.8,3.2c0.5,0.9,1.3,1.6,2.3,2c-0.5,0.9-0.1,2.1,0.8,2.6&#10;&#9;&#9;c0.1,0,0.1,0.1,0.2,0.1c1.2,0.7,2.5,1,3.8,1c0.4,0.5,1,0.8,1.6,1.1c1.3,0.6,2.7,0.8,4.2,0.8c0.1,0,0.3,0,0.4,0&#10;&#9;&#9;c0.2,0.2,0.4,0.3,0.7,0.5c1.1,0.5,2.4,0.6,3.6,0.4c2.1,1.2,4.6,1.3,6.8,0.4c1.1,0.6,2.4,0.9,3.6,0.8c1.1-0.1,2.1-0.6,2.9-1.3&#10;&#9;&#9;c0.9,0.2,1.9,0.3,2.9,0.3c1.3,0.1,2.5-0.3,3.5-1.1c1,0.3,2.1,0.4,3.1,0.1c1.1-0.3,2-0.9,2.7-1.8c1.2,0.3,2.5,0.2,3.7-0.3&#10;&#9;&#9;c1.1-0.5,1.9-1.6,1.9-2.8c1.2-0.3,2.2-1.1,2.7-2.2C280.6,221.9,279.6,220.4,277.7,220z M257.4,210.9c0.3,0,0.6,0,0.9,0&#10;&#9;&#9;c0.6,0,0.9,0.2,1,0.4C258.6,211.2,258,211.1,257.4,210.9L257.4,210.9z M268.3,221.8c0-0.1,0-0.2,0.1-0.3c0,0.1,0,0.1,0.1,0.2&#10;&#9;&#9;L268.3,221.8z M268.9,215.6l-0.5-0.3c0.2,0,0.4,0,0.7,0.1C269,215.4,268.9,215.5,268.9,215.6L268.9,215.6z"/>
	<path class="st3_explosion-89" d="M268.7,221c0.2-0.5,0.1-1.1-0.3-1.5c-0.5-0.5-1.2-0.8-1.9-0.8c0-1-0.7-1.8-1.6-2.1c-0.7-0.3-1.5-0.3-2.2-0.2&#10;&#9;&#9;c-0.3-0.6-0.9-1.1-1.6-1.2c-0.7-0.1-1.5-0.1-2.2,0.1c-0.4-0.6-1.1-1-1.9-0.9c-0.8-0.1-1.5,0-2.3,0.2c-0.9-0.6-2-0.7-3-0.5&#10;&#9;&#9;c-0.6,0.1-1.2,0.3-1.7,0.7c-1-0.4-2.1-0.4-3.1-0.1c-0.8,0.2-1.5,0.5-2,1.1c-1.1-0.1-2.1,0.2-3,0.7c-0.5,0.3-0.8,0.8-0.7,1.4&#10;&#9;&#9;c-0.8,0.2-1.6,0.6-2,1.4c-0.2,0.5-0.1,1.1,0.3,1.5c-1,0.4-1.4,1.2-1.1,2c0.3,0.6,0.8,1,1.4,1.2c-0.3,0.6-0.1,1.3,0.5,1.6&#10;&#9;&#9;c0,0,0.1,0,0.1,0c0.7,0.4,1.5,0.6,2.4,0.6c0.3,0.3,0.6,0.5,1,0.7c0.8,0.3,1.7,0.5,2.6,0.5h0.3c0.1,0.1,0.3,0.2,0.4,0.3&#10;&#9;&#9;c0.7,0.3,1.5,0.4,2.2,0.2c1.3,0.7,2.9,0.8,4.2,0.2c0.7,0.4,1.4,0.6,2.2,0.5c0.7-0.1,1.3-0.3,1.8-0.8c0.6,0.1,1.2,0.2,1.8,0.2&#10;&#9;&#9;c0.8,0,1.5-0.2,2.1-0.7c0.6,0.2,1.3,0.2,1.9,0.1c0.7-0.2,1.3-0.5,1.7-1.1c0.8,0.2,1.5,0.1,2.3-0.2c0.7-0.3,1.2-1,1.2-1.7&#10;&#9;&#9;c0.7-0.2,1.4-0.7,1.7-1.4C270.5,222.2,269.9,221.3,268.7,221z M256.2,215.4h0.5c0.4,0,0.5,0.1,0.6,0.3&#10;&#9;&#9;C257,215.6,256.6,215.5,256.2,215.4L256.2,215.4z M262.9,222.1c0-0.1,0-0.1,0-0.2C262.9,222,262.9,222,262.9,222.1&#10;&#9;&#9;C262.9,222.1,262.9,222.1,262.9,222.1L262.9,222.1z M263.3,218.3l-0.3-0.2c0.1,0,0.3,0,0.4,0.1&#10;&#9;&#9;C263.4,218.2,263.3,218.2,263.3,218.3L263.3,218.3z"/>
	<path class="st5_explosion-89" d="M262.6,245.3v48.8c1.5,0.2,3-0.2,4.2-1V246L262.6,245.3z"/>
	<g class="st6_explosion-89">
		
			<image style="overflow:visible;enable-background:new    ;" width="834" height="462" xlink:href="9DFBCB2FBF23CEB2.png" transform="matrix(0.24 0 0 0.24 150.88 171.89)">
		</image>
		<path class="st7_explosion-89" d="M251.7,267.7c-45.2,0-86.3-19.8-85.8-40.3c0.6-23.3,40.6-40.3,85.8-40.3s84.2,17.7,84.2,40.3&#10;&#9;&#9;&#9;S296.9,267.7,251.7,267.7z M252,195.3c-7.4,0-14.9,0.6-22.2,2c-16.1,2.9-34.6,8.8-44.2,23c-4.6,6.7-2.2,13.4,3.5,18.5&#10;&#9;&#9;&#9;c16.4,14.4,42.1,20.2,63.4,20.2c17,0.1,33.7-3.8,48.9-11.3c9.2-4.6,26.8-14.9,18.3-27.6c-7.5-11.2-23.5-16.3-35.8-20&#10;&#9;&#9;&#9;C273.6,197,262.8,195.4,252,195.3L252,195.3z"/>
	</g>
	<path class="st2_explosion-89" d="M357.4,144.9c1.5-5,0.7-10.4-2.1-14.9c-3-4.6-7.8-7.6-13.3-8.2c0.8-8.2-3.9-17.2-11-21.4&#10;&#9;&#9;c-4.6-2.8-10.2-3.4-15.3-1.8c-1.6-5.5-5.3-10.2-11.3-11.8c-5.1-1.4-10.4-1.3-15.4,0.5c-1.9-5.3-5.9-8.9-12.9-9.6&#10;&#9;&#9;c-5-0.5-11.2-0.2-15.7,2.4c-5.6-5.4-12.1-7.1-20.4-5c-4.5,1-8.5,3.4-11.5,6.8c-6-4.4-14.3-3.7-21.4-0.6c-5.3,2.2-11,6-13.6,11.1&#10;&#9;&#9;c-7.1-0.6-15.7,2.4-20.7,7.3c-4,4-5,9-4.7,14.1c-6.3,2.4-12.4,7.5-14,13.6c-1.2,4.6-0.4,10.3,1.9,15c-6.9,4.1-10.1,12.4-7.6,20&#10;&#9;&#9;c1.8,5.2,5.2,9.6,9.8,12.6c-1.9,5.8-1.1,12,4.2,16.5c4.7,4,10.6,6.5,16.3,6.1c1.7,2.7,4,5,6.7,6.7c4.9,3.1,11.9,5.4,17.7,5.2&#10;&#9;&#9;c0.6,0,1.2-0.1,1.8-0.2c0.8,1.1,1.8,2,2.9,2.9c4.7,3.5,10.1,3.7,15.2,2.2c8,7.4,20,8.4,29,2.3c4.4,3.5,9.5,5.9,15.4,5&#10;&#9;&#9;c5.2-0.8,9.1-4,12.3-7.9c3.9,1.4,8.1,2.1,12.3,1.9c5.8,0.2,11.3-2.4,14.8-7c4.1,2.1,9,2.4,13.3,0.6c5.1-2.1,9.2-6.1,11.5-11.1&#10;&#9;&#9;c5.3,1.6,11.2,1.4,15.6-1.8c5.2-3.8,8.3-10.9,8-17.4c5.4-1.9,9.8-7.2,11.9-13.6C370,157.1,365.7,148,357.4,144.9z M271,88.2&#10;&#9;&#9;c1.4,0,2.7,0.2,3.7,0.2c2.6,0.2,3.8,1.1,4.4,2.5C276.3,90.3,273.6,89.3,271,88.2z M317.4,156.2c0.1-0.7,0.2-1.3,0.2-2&#10;&#9;&#9;c0.1,0.4,0.2,0.9,0.4,1.3C317.9,155.6,317.6,155.9,317.4,156.2L317.4,156.2z M319.9,117.3c-0.7-0.6-1.4-1.2-2-1.7&#10;&#9;&#9;c1,0,1.9,0.2,2.8,0.5C320.4,116.5,320.1,116.9,319.9,117.3L319.9,117.3z"/>
	<path class="st4_explosion-89" d="M329.8,130c1-3.2,0.5-6.6-1.5-9.3c-2.3-3-5.8-4.9-9.6-5.2c0.6-5.2-2.8-10.7-7.9-13.4c-3.4-1.7-7.3-2.1-11-1.1&#10;&#9;&#9;c-1.2-3.8-4.3-6.6-8.2-7.4c-3.7-0.9-7.5-0.8-11.2,0.3c-1.4-3.3-4.3-5.6-9.3-6c-3.6-0.3-8.1-0.1-11.3,1.5c-4.1-3.4-8.8-4.5-14.8-3.1&#10;&#9;&#9;c-3.1,0.6-6,2.1-8.3,4.3c-4.3-2.8-10.4-2.3-15.5-0.4c-3.8,1.4-7.9,3.8-9.8,6.9c-5.2-0.4-11.4,1.5-15,4.6c-2.6,2.2-3.8,5.5-3.4,8.8&#10;&#9;&#9;c-4.5,1.5-8.9,4.7-10.1,8.5c-0.8,3.2-0.3,6.6,1.4,9.4c-4.9,2.4-7.2,7.6-5.5,12.5c1.4,3.4,3.9,6.2,7.1,7.9c-1.6,3.7-0.4,8.1,3,10.3&#10;&#9;&#9;c3.4,2.6,7.6,3.9,11.8,3.8c1.3,1.7,2.9,3.2,4.8,4.2c3.9,2.1,8.3,3.2,12.8,3.3c0.4,0,0.9,0,1.3-0.1c0.6,0.7,1.3,1.3,2.1,1.8&#10;&#9;&#9;c3.4,2.2,7.3,2.3,11,1.4c6.1,4.7,14.3,5.2,21,1.4c3.2,2.2,6.8,3.7,11.1,3.1c3.4-0.6,6.6-2.3,8.9-4.9c2.9,0.9,5.9,1.2,8.8,1.1&#10;&#9;&#9;c4.8,0,8.1-1.6,10.7-4.4c3,1.3,6.5,1.5,9.6,0.4c3.5-1.2,6.5-3.7,8.3-6.9c3.8,1,8.1,0.9,11.3-1.1c3.7-2.4,5.9-6.5,5.8-10.9&#10;&#9;&#9;c4-1.4,7.2-4.5,8.6-8.5C338.9,137.4,335.6,131.8,329.8,130z M267.3,94.5c1,0,2,0.1,2.7,0.1c1.9,0.1,2.8,0.7,3.2,1.6&#10;&#9;&#9;C271.2,95.8,269.2,95.3,267.3,94.5z M300.9,137.1c0.1-0.4,0.1-0.8,0.2-1.3c0.1,0.2,0.2,0.5,0.3,0.8&#10;&#9;&#9;C301.2,136.7,301.1,136.9,300.9,137.1z M302.7,112.7c-0.5-0.4-1-0.7-1.5-1.1c0.7,0,1.4,0.1,2,0.3&#10;&#9;&#9;C303,112.2,302.8,112.5,302.7,112.7z"/>
	<path class="st5_explosion-89" d="M313.3,132c0.8-2.1,0.4-4.4-1.1-6c-2-2-4.6-3.2-7.4-3.3c0.5-3.3-2.2-7-6.1-8.7c-2.7-1.1-5.7-1.4-8.5-0.7&#10;&#9;&#9;c-0.9-2.2-3-4.1-6.3-4.8c-2.8-0.6-5.8-0.5-8.6,0.2c-1.1-2.1-3.3-3.6-7.2-3.9c-2.8-0.2-6.3-0.1-8.7,1c-3.1-2.2-6.7-2.9-11.4-2&#10;&#9;&#9;c-2.3,0.4-4.6,1.3-6.4,2.8c-3.3-1.8-8-1.5-11.9-0.2c-2.9,0.9-6.1,2.4-7.6,4.5c-4.1-0.2-8.1,0.8-11.6,3c-1.9,1.2-2.9,3.5-2.6,5.7&#10;&#9;&#9;c-3.5,1-6.9,3-7.8,5.5c-0.6,2.1-0.3,4.3,1,6.1c-3.8,1.6-5.6,4.9-4.2,8.1c1.2,2.3,3.1,4.1,5.4,5.1c-1.1,2.4-0.6,4.9,2.3,6.7&#10;&#9;&#9;c2.7,1.7,5.9,2.6,9.1,2.4c1,1.2,2.3,2.1,3.7,2.7c3.1,1.4,6.5,2.1,9.9,2.1c0.4,0,0.7,0,1-0.1c0.5,0.4,1.1,0.8,1.7,1&#10;&#9;&#9;c2.6,1.3,5.6,1.6,8.5,0.9c4.3,3,11.2,3.4,16.1,0.9c2.6,1.6,5.6,2.3,8.6,2c2.6-0.3,5-1.4,6.9-3.2c2.2,0.6,4.5,0.8,6.8,0.7&#10;&#9;&#9;c3,0.2,6-0.9,8.2-2.9c2.4,0.9,5,1,7.4,0.2c2.6-0.7,4.9-2.3,6.4-4.5c2.9,0.8,6,0.5,8.7-0.7c2.9-1.5,4.6-4.4,4.5-7.1&#10;&#9;&#9;c2.9-0.8,5.4-2.8,6.6-5.5C320.3,136.7,317.8,133.1,313.3,132z M265.2,109c0.8,0,1.5,0.1,2,0.1c1.4,0.1,2.1,0.4,2.5,1&#10;&#9;&#9;C268.1,109.8,266.6,109.5,265.2,109L265.2,109z M291,136.5c0.1-0.3,0.1-0.5,0.1-0.8c0.1,0.2,0.1,0.3,0.2,0.5&#10;&#9;&#9;C291.2,136.3,291.1,136.4,291,136.5z M292.4,120.8l-1.1-0.7c0.5,0,1,0.1,1.6,0.2C292.7,120.4,292.5,120.6,292.4,120.8L292.4,120.8z&#10;&#9;&#9;"/>
	<path class="st3_explosion-89" d="M292,130.6c0.5-1.2,0.2-2.5-0.7-3.4c-1.2-1.1-2.9-1.8-4.6-1.9c0.3-1.9-1.4-3.9-3.8-4.9&#10;&#9;&#9;c-1.7-0.6-3.5-0.8-5.2-0.4c-0.8-1.5-2.2-2.5-3.9-2.7c-1.8-0.3-3.6-0.3-5.3,0.1c-0.7-1.2-2-2-4.4-2.2c-1.8-0.2-3.6,0-5.4,0.6&#10;&#9;&#9;c-2.1-1.3-4.6-1.7-7-1.1c-1.4,0.2-2.8,0.7-4,1.6c-2.1-1-4.9-0.8-7.4-0.1c-1.8,0.5-3.8,1.4-4.7,2.5c-2.5-0.1-5,0.5-7.1,1.7&#10;&#9;&#9;c-1.1,0.6-1.8,1.9-1.6,3.2c-2.1,0.5-4.2,1.7-4.8,3.1c-0.4,1.2-0.1,2.5,0.6,3.4c-2.3,0.9-3.4,2.8-2.6,4.6c0.8,1.3,1.9,2.3,3.4,2.9&#10;&#9;&#9;c-0.7,1.3-0.4,2.7,1.4,3.8c1.7,1,3.7,1.5,5.6,1.4c0.6,0.7,1.4,1.2,2.3,1.5c1.9,0.8,4,1.2,6.1,1.2c0.2,0,0.4,0,0.6,0&#10;&#9;&#9;c0.3,0.3,0.6,0.5,1,0.7c1.6,0.7,3.5,0.9,5.2,0.5c3.1,1.7,6.8,1.9,10,0.5c1.6,0.9,3.4,1.3,5.3,1.1c1.6-0.2,3-0.8,4.2-1.8&#10;&#9;&#9;c1.4,0.3,2.8,0.5,4.2,0.4c1.8,0.1,3.6-0.5,5.1-1.6c1.5,0.5,3.1,0.5,4.6,0.1c1.6-0.4,3-1.3,4-2.5c1.8,0.4,3.7,0.3,5.4-0.4&#10;&#9;&#9;c1.6-0.7,2.7-2.2,2.8-4c1.8-0.4,3.2-1.5,4.1-3.1C296.4,133.3,294.8,131.2,292,130.6z M262.3,117.7c0.5,0,0.9,0,1.3,0&#10;&#9;&#9;c0.9,0.1,1.3,0.2,1.5,0.6C264.2,118.1,263.2,117.9,262.3,117.7L262.3,117.7z M278.3,133.2c0-0.2,0.1-0.3,0.1-0.5&#10;&#9;&#9;c0,0.1,0.1,0.2,0.1,0.3L278.3,133.2z M279.2,124.3l-0.7-0.4c0.3,0,0.7,0.1,1,0.1C279.3,124.1,279.2,124.2,279.2,124.3z"/>
	<path class="st4_explosion-89" d="M249.3,281c-0.3-0.7-0.8-1.2-1.4-1.6c-1.9-8-10.1-12.3-18.5-10.3c-5.9,1.5-10.5,6.2-11.7,12.2&#10;&#9;&#9;c-2.9-0.7-5.9-0.2-8.5,1.1c-2.8,1.7-5,4-6.6,6.9c-3.1,1.6-4.6,5.3-3.5,8.6c2.3,7.9,14.3,7,20.5,6.9c8.1-0.2,18.3-0.8,25.1-5.7&#10;&#9;&#9;C250.5,294.8,252.7,287.6,249.3,281z"/>
	<path class="st5_explosion-89" d="M246.3,286c-3.7-2.9-8.9-2.6-12.3,0.7c-2.5,2.3-3.6,5.7-3,9c-2.9,0.2-5.5,1.8-7.1,4.3c-1,1.8-1.3,4-0.6,5.9&#10;&#9;&#9;c-1.1,0.6-2.2,1.3-3.2,2.1c-3.5,1.8-5.5,6.6-1.7,9.5s9,0.3,12.4-1.8l0.1-0.1c1-0.4,2.1-0.9,3.1-1.4c5.2-2.5,10.1-5.4,14.8-8.8&#10;&#9;&#9;c1.7-1.2,2.3-3.4,1.6-5.4c0.3-0.6,0.5-1.3,0.6-2C251.2,293.8,249.8,288.8,246.3,286z"/>
	<path class="st5_explosion-89" d="M304.1,293.9c-0.7-2.1-2.3-3.9-4.4-4.8c-3.1-1.4-6.5-1.9-9.8-1.3c-0.2-1-0.5-1.9-0.9-2.7&#10;&#9;&#9;c-1.8-3.7-5.9-4.8-9.5-3.9c-0.2-3.7-2.2-7-5.3-9c-4.5-2.6-9.5-0.8-12.2,3.2c-1.9-0.2-3.6,1.2-3.8,3.1c-1.4,7.6-5.9,20.6,5.4,22.2&#10;&#9;&#9;c13.2,1.8,27.1,1.4,40.5,2C309.5,302.9,309.6,294.3,304.1,293.9z"/>
	<path class="st4_explosion-89" d="M290.1,307c-1.3-0.5-2.7-0.9-4-1.3c0-0.1,0-0.2-0.1-0.3c-1-3.2-5.3-4.7-8.3-5.5c1.7-2.5,2.8-5.6,0.3-8&#10;&#9;&#9;c-2.2-2.3-6.1-2.4-9-1.6c-1.1-5.2-3.9-9.9-10.1-9.6c-9.6,0.4-8,14.6-7.8,21.1c0,0.6,0.2,1.2,0.4,1.7c0.4,3.2,1.7,4.9,4.9,6.3&#10;&#9;&#9;c9.8,4.3,21.9,5.5,32.5,5.8C294,315.7,294.6,308.5,290.1,307z"/>
	<path class="st4_explosion-89" d="M261,302.7c-0.6-3.4-3.9-5.7-7.3-5.1c-1.5,0.3-2.9,1.1-3.8,2.3c-2-0.9-4.3-0.8-6.2,0.4c-1,0.6-1.9,1.5-2.4,2.6&#10;&#9;&#9;c-0.2,0-0.4,0-0.6,0.1c-3.4,0.6-5.9,3.5-6.1,6.9c-0.2,5.6,4.7,7.1,9.5,7.4c0.8,2.4,2.7,4.3,5.1,5.1c3.2,1.1,6.7-0.6,7.9-3.8&#10;&#9;&#9;c0,0,0,0,0,0c0.2-0.4,0.3-0.8,0.4-1.3c4.9-0.6,9.6-3.2,9.3-8.5C266.4,305.6,264.1,303.1,261,302.7z"/>
</g>
</svg>