<svg version="1.1" id="Layer_1" xmlns="http://www.w3.org/2000/svg" xmlns:xlink="http://www.w3.org/1999/xlink" x="0px" y="0px" viewBox="0 0 500 500" style="width: 181px;" xml:space="preserve" data-imageid="police-9" imageName="Police" class="illustrations_image">
<style type="text/css">
	.st0_police-9{fill:#BFBFBF;}
	.st1_police-9{fill:url(#SVGID_1_);}
	.st2_police-9{fill:#151A1E;}
	.st3_police-9{fill:#FFFFFF;}
	.st4_police-9{fill:#68E1FD;}
	.st5_police-9{fill:#6A6A6A;}
	.st6_police-9{fill:#DDDDDD;}
	.st7_police-9{fill:#FF4A0E;}
	.st8_police-9{opacity:0.3;fill:#151A1E;enable-background:new    ;}
	.st9_police-9{fill:#1CA3FF;}
	.st10_police-9{fill:url(#SVGID_00000126290834878671273990000011864878065979351954_);}
	.st11_police-9{opacity:0.7;fill:#151A1E;enable-background:new    ;}
	.st12_police-9{fill:#1F404A;}
	.st13_police-9{fill:#FFB92C;}
	.st14_police-9{opacity:0.2;fill:#DDDDDD;enable-background:new    ;}
</style>
<path id="field_police-9" class="st0_police-9" d="M243,398.8L22.2,268.3c-7-4-13.1-10.4-6.2-14.7l221.6-127.7c3.3-2.1,8.4-3.4,11.8-1.4L481,259&#10;&#9;c7,4.1,8.3,15.5,1.3,19.6l-210.2,120C263.1,403.8,252,403.8,243,398.8z"/>
<g id="police-car_police-9">
	
		<linearGradient id="SVGID_1_-police-9" gradientUnits="userSpaceOnUse" x1="149.7323" y1="241.5187" x2="196.8923" y2="321.8787" gradientTransform="matrix(1 0 0 -1 0 502)">
		<stop offset="0" style="stop-color:#BFBFBF"/>
		<stop offset="1" style="stop-color:#6A6A6A"/>
	</linearGradient>
	<path class="st1_police-9" d="M290.6,224.2c0.8-4.4,0.6-8.9-0.6-13.2l-72.8-60.4L28.4,263c12.2,7.8,85.2,53.9,97.8,60.9l157.6-89&#10;&#9;&#9;C284.7,232.2,290.1,226.9,290.6,224.2z"/>
	<path class="st2_police-9" d="M64.5,238.3l9.6-16.1c10.5-8.2,36.3-27.4,36.3-27.4c7.5-9.4,28.1-30,28.1-30c14.6-10.8,69.3-39.9,73.5-40.3&#10;&#9;&#9;s18.4,2.7,20.6,2.9s8.9-4.3,8.9-4.3c19.9,1.6,39.3,17.9,48.5,25s9.4,18,9.4,18s1,34,0.4,35.8s-6.1,5.7-6.1,5.7s0.2-19.2-13.7-12.4&#10;&#9;&#9;s-16.9,30.5-18.1,31.7c-1.1,1.1-69.1,40.4-84.1,49.1c0.1-4.2-0.4-8.6-3.6-11.7c-3.7-3.6-9.2-3.1-13.7-1.3&#10;&#9;&#9;c-4.5,1.7-8.4,4.8-11.1,8.8c-4,4.9-5.9,11.4-6.9,17.5c-0.1,0.8-0.5,11.4-0.7,11.4c-36.6,12-77.1-31.9-77.9-35.4&#10;&#9;&#9;S64.5,238.3,64.5,238.3z"/>
	<path class="st3_police-9" d="M276.7,171.6c-0.6-0.1-6.1,0.6-6.7,0.5c0,0.2-8.2,10.3-8,10.1s0.8-0.3-4.8,3.4c-4.7,3-14.8,2.4-19.7,5&#10;&#9;&#9;c0.7,1.4,0.5,3.2-0.5,4.4l-0.2,0.2c0.6,1.1,0.6,2.4-0.1,3.4c-1.3,2-0.1,1.6-2,3s-6.7,4.8-8.8,5.9c-3.2,1.7-6.2-1.8-5.3-4.4&#10;&#9;&#9;c-4.6,2.4-9,5.2-13.2,8.2c-4.2,3.1-8,6.4-12.7,8.6c-4.3,5.6-10.1,7.6-13.8,13.6l0.8,40.1c20.4-11.8,79-45.8,80.1-46.8&#10;&#9;&#9;c1.3-1.2,4.3-24.9,18.1-31.7c0.4-0.2,0.9-0.4,1.3-0.6C279.8,186.7,280.8,178.7,276.7,171.6z"/>
	<path class="st2_police-9" d="M93.3,269.9c13.7,8.7,27.7,12.5,51.6,9.3c-0.4,1.7-2,8.4-2.2,10.1c-0.1,0.8-0.5,11.4-0.7,11.4&#10;&#9;&#9;c-36.6,12-77.1-31.9-77.9-35.4c-0.7-3.2,0.3-23.5,0.5-26.6C71,252.3,72.7,256.8,93.3,269.9z"/>
	<path class="st4_police-9 targetColor" d="M77.8,261.9c0,0-0.2,5.5-0.1,5.6s9.6,8.5,21.2,12.9l0.1-5.4C99,275.1,86.3,268.9,77.8,261.9z" style="fill: rgb(104, 225, 253);"/>
	<path class="st4_police-9 targetColor" d="M143.4,166.2c-2.8-2.7-28.2,25.5-29.8,29.3s-3.9,6.2,1.3,12.1s35,23.2,40.9,24.7s9.1,4.6,17.1-2.7&#10;&#9;&#9;s20.1-31.2,20.1-31.2S157.8,180,143.4,166.2z" style="fill: rgb(104, 225, 253);"/>
	<path class="st2_police-9" d="M115.2,189.7c0,0-5.6-4.7-9.4-3s4.6,8.1,4.6,8.1L115.2,189.7z"/>
	
		<ellipse transform="matrix(0.4352 -0.9003 0.9003 0.4352 -36.4748 373.813)" class="st5_police-9" cx="279.7" cy="216" rx="23.4" ry="15.6"/>
	
		<ellipse transform="matrix(0.4352 -0.9003 0.9003 0.4352 -35.6761 375.2623)" class="st6_police-9" cx="281.3" cy="216.1" rx="12.7" ry="8.5"/>
	<path class="st4_police-9 targetColor" d="M110.1,275.5c-1-0.3-2-0.9-2.8-1.6c-1.5-1.6-0.4-3.6,0.7-5c1.1-1.4,2.6-2.3,4.4-2.7c3.5-0.9,7-1.6,10.5-2.1&#10;&#9;&#9;c2.4-0.3,4.7-0.6,7.1-0.8c2.6-0.3,5.2-0.3,7.7,0.1c2.7,0.6,2,4,1.1,5.8c-1.5,2.9-4.4,5.1-7.2,6.7c-2.1,1.2-4.4,1.9-6.7,2.1&#10;&#9;&#9;c-2.5,0.1-5-0.1-7.5-0.6c-1.8-0.3-3.6-0.7-5.4-1.3C111.3,275.9,110.7,275.7,110.1,275.5z" style="fill: rgb(104, 225, 253);"/>
	<path class="st4_police-9 targetColor" d="M64.5,238.3c0,0,4.4,8.7,7,10.9s3.9,0.7,4.2-1.5s-1.3-25.5-1.7-25.5S67.3,225.4,64.5,238.3z" style="fill: rgb(104, 225, 253);"/>
	<path class="st4_police-9 targetColor" d="M80.9,245.6c0.8,0.4,1.7,1.1,2.3,1.5c4.4,2.7,8.8,5.4,13.2,8.1l6.6,4.1c1.4,0.9,4.6,2,3.2,4.1&#10;&#9;&#9;c-1.5,2.2-3.4,4.1-5.5,5.8c-1.5,1.2-2.6,1.6-4.4,0.6c-3.2-1.9-6.4-3.7-9.6-5.6c-2.5-1.5-5.3-3.3-6.1-6.3c-0.8-3.1-1.4-6.3-1.6-9.5&#10;&#9;&#9;c-0.1-1.1-0.3-3.3,1.4-3C80.6,245.5,80.8,245.5,80.9,245.6z" style="fill: rgb(104, 225, 253);"/>
	<path class="st4_police-9 targetColor" d="M120.6,291.7c1.1,0.3,1.9,1.4,1.9,2.5c0,2.7-2.5,2.6-4.4,2.7c-2.4,0.1-23.8-7.2-37.7-18s-16.3-20.1-16.3-20.1&#10;&#9;&#9;l0.1-7.1c0,0,3.4,14.8,21.7,25.7c7.5,4.5,15.5,8.2,23.7,11.1c2.6,0.9,5.2,1.8,7.8,2.5C118.5,291,119.5,291.3,120.6,291.7z" style="fill: rgb(104, 225, 253);"/>
	<path class="st4_police-9 targetColor" d="M262.8,157.4l15.2,0.9c0,0,2.2,0.8,0.9-2.9s-16-18.6-35.5-23.1c0,0-27-4.7-22-2.8&#10;&#9;&#9;C224.2,130.6,246.2,141.1,262.8,157.4z" style="fill: rgb(104, 225, 253);"/>
	<path class="st4_police-9 targetColor" d="M262,182.2c5-3.5,9.9-7,14.8-10.6c-2.7-1.5-5.8-2.5-8.9-2.9c-1.9-0.1-3.8-0.1-5.6,0L262,182.2z" style="fill: rgb(104, 225, 253);"/>
	<path class="st4_police-9 targetColor" d="M228.6,178.6c-10.8,5.2-20.5,12.5-28.5,21.4c-8.1,9.4-14.6,20.2-19,31.9c-0.5,1.1,0.1,2.4,1.2,2.9&#10;&#9;&#9;c0.7,0.3,1.4,0.2,2-0.2c8.5-5.3,25.3-15.8,37.4-23.6l3-2v-0.2l3.4-2.4L228.6,178.6z" style="fill: rgb(104, 225, 253);"/>
	<path class="st4_police-9 targetColor" d="M257.5,169.1c-4.4,0.6-8.8,1.6-13.1,3c-3.1,1-6.1,2.1-9.1,3.4l-0.5,26.1l21.3-15.2c0.4-0.3,0.7-0.5,1.1-0.8&#10;&#9;&#9;L257.5,169.1z" style="fill: rgb(104, 225, 253);"/>
	
		<ellipse transform="matrix(0.4352 -0.9003 0.9003 0.4352 -164.4686 304.5132)" class="st5_police-9" cx="160.5" cy="283.3" rx="24.2" ry="15.8"/>
	
		<ellipse transform="matrix(0.4352 -0.9003 0.9003 0.4352 -163.683 305.8041)" class="st6_police-9" cx="161.9" cy="283.4" rx="13.2" ry="8.6"/>
	<path class="st7_police-9" d="M204.1,184.9c0,0,8.9-4.1,9.6-5s-0.6-6.8-0.6-6.8S201.1,171.3,204.1,184.9z"/>
	<path class="st8_police-9" d="M204.1,184.9c0,0,8.9-4.1,9.6-5s-0.6-6.8-0.6-6.8S201.1,171.3,204.1,184.9z"/>
	<path class="st7_police-9" d="M196.1,161.6c-0.2,0.1-0.5,0.2-0.7,0.2c-3.2,0.6-6.1,2.1-8.4,4.3c-1.5,1.6-2.7,3.4-3.6,5.4l20.7,13.3&#10;&#9;&#9;c0,0-0.1-4.6,0.6-6.6s8.4-5.3,8.4-5.3L196.1,161.6z"/>
	<path class="st9_police-9" d="M180.8,162.3c2.1-2.5,4.7-4.5,7.7-5.8l-14.1-9.4c0,0-8.2,3.7-9.6,4.8s-2.5,6-2.5,6l15.1,9.7&#10;&#9;&#9;C178.3,165.7,179.4,164,180.8,162.3z"/>
	<path class="st3_police-9" d="M190,168.6c2.2-2.6,5.5-4.2,8.8-5.2l-10.7-7.2c-3.2,0.9-7,1.5-9.7,3.6c-2.1,1.6-2.5,4.1-2.7,6.7l12.5,8&#10;&#9;&#9;C187.9,172.4,188.6,170.3,190,168.6z"/>
	<path class="st2_police-9" d="M204,232c0.9,0.3,1.5,1.3,1.5,2.8c0,1.5-0.3,3-1.1,4.4c-1,1.7-2.5,3.1-4.2,4.1c-0.3,0.2-0.7,0.4-1,0.5l0.2,5.5&#10;&#9;&#9;l-3,1.7l-0.5-15.2c1.3-1,2.6-1.8,4-2.6C201.7,232,203.1,231.7,204,232z M200,240.5c1.5-0.8,2.5-2.3,2.5-4c-0.1-1.4-0.9-1.8-2.4-0.9&#10;&#9;&#9;c-0.4,0.2-0.9,0.5-1.2,0.9l0.1,4.5C199.3,240.9,199.7,240.7,200,240.5"/>
	<path class="st2_police-9" d="M213.1,225.4c4.1-2.3,6.4,0,6.5,4.2c0.2,4.8-2.2,9.3-6.3,11.8c-3.9,2.2-6.3,0.1-6.5-4.3&#10;&#9;&#9;C206.7,232.5,209.2,227.6,213.1,225.4z M213.4,238.6c2-1.2,3.1-4.1,3-7.1c-0.1-2.8-1.3-4.5-3.4-3.3s-3.1,4.1-3.1,7.1&#10;&#9;&#9;S211.4,239.7,213.4,238.6"/>
	<polygon class="st2_police-9" points="224.4,219.2 224.7,231.7 230,228.7 230.1,231.6 221.8,236.4 221.4,220.9 &#9;"/>
	<polygon class="st2_police-9" points="234.4,213.5 234.9,228.9 231.9,230.6 231.4,215.2 &#9;"/>
	<path class="st2_police-9" d="M243.6,207.9c1-0.6,2.1-1,3.3-1.2l-0.5,3.1c-0.9,0.1-1.8,0.4-2.5,0.9c-2.7,1.6-4.2,4.4-4.1,7.5&#10;&#9;&#9;c0.1,3.1,1.7,4.1,4.4,2.6c0.9-0.5,1.7-1.2,2.5-1.9l0.5,2.5c-1,1-2.1,1.9-3.4,2.6c-4.6,2.6-7,0.6-7.2-3.8&#10;&#9;&#9;C236.6,215.2,239.2,210.5,243.6,207.9z"/>
	<polygon class="st2_police-9" points="256.9,200.6 257,203.5 251.8,206.4 251.9,209.6 256.8,206.9 256.9,209.7 252,212.5 252.1,216.2 &#10;&#9;&#9;257.5,213.1 257.6,215.9 249.2,220.7 248.7,205.3 &#9;"/>
</g>
<g id="police_police-9">
	
		<linearGradient id="SVGID_00000182487083615853721410000014049433145628867980_-police-9" gradientUnits="userSpaceOnUse" x1="311.8417" y1="166.2371" x2="368.7017" y2="199.7171" gradientTransform="matrix(1 0 0 -1 0 502)">
		<stop offset="0" style="stop-color:#BFBFBF"/>
		<stop offset="1" style="stop-color:#6A6A6A"/>
	</linearGradient>
	<path style="fill:url(#SVGID_00000182487083615853721410000014049433145628867980_);" d="M371.2,316.6c0.8-4.4,0.6-8.9-0.6-13.2&#10;&#9;&#9;L353,291.2l-83.9,47.1c12.2,7.8,24.6,15.1,37.3,22.2l62.5-35.7C369.9,322.1,370.6,319.4,371.2,316.6z"/>
	<path class="st6_police-9" d="M334.4,181.5c0,0,1.3,14,1.7,15.1s5.8,4.2,5.8,4.2l0.9-18.2C342.8,182.6,336.5,178.6,334.4,181.5z"/>
	<path class="st11_police-9" d="M334.4,181.5c0,0,1.3,14,1.7,15.1s5.8,4.2,5.8,4.2l0.9-18.2C342.8,182.6,336.5,178.6,334.4,181.5z"/>
	<path class="st2_police-9" d="M376.6,294.9c-0.2-4-0.5-7.2-0.5-7.2l-13.4,1.1c1.2,5.2,1.6,10.4,1.2,15.7c-0.5,5.1-3.1,10.3-3,15.1&#10;&#9;&#9;c0.5,2.3,1.7,4.3,3.7,5.2c5.8,2.5,9.6-6.2,11.1-12.9C375.8,306.2,376.3,300.6,376.6,294.9z"/>
	<path class="st2_police-9" d="M345.9,285c0,0-1.4,7.2-4.2,10.5s-16,6.5-12,11.6s17.5-4.2,22.8-5.6c3.1-0.8,6-2.1,8.6-3.9l-2.1-11.2"/>
	<path class="st12_police-9" d="M341.2,182.6c0,0,1.7,45.7,2.3,53.7s1.4,49.4,1.4,49.4s4.6,3.4,14.5,1.2c0,0,2.1-36.1,1.8-42.7&#10;&#9;&#9;s6.6-56.1,5.6-56S341.2,182.6,341.2,182.6z"/>
	<path class="st8_police-9" d="M341.2,182.6c0,0,1.7,45.7,2.3,53.7s1.4,49.4,1.4,49.4s4.6,3.4,14.5,1.2c0,0,2.1-36.1,1.8-42.7&#10;&#9;&#9;s6.6-56.1,5.6-56S341.2,182.6,341.2,182.6z"/>
	<path class="st12_police-9" d="M361.2,295.7c4.7,2.3,10.1,2.5,15,0.6c0.4-5.4,1.9-30.1-0.1-52.4c0,0,2.5-54.4-1.6-59.2s-29.6,0-29.6,0&#10;&#9;&#9;s9.9,42,10.8,47.1s5.1,20,5.4,28.6C361.4,267.2,361.3,287.2,361.2,295.7z"/>
	<path class="st12_police-9" d="M399,166.7c-3.2-8.5-8.2-16.2-14.6-22.7c-5-5-10.2-10.4-17.4-12c-4.2-0.9-8.5-0.9-12.8-1.1&#10;&#9;&#9;c-8.9-0.4-12.6,5-13.5,8.8s0,43.2,0,43.2s4.5,4.2,13.5,4.7c6,0.3,12.1-0.1,18-1.1c0,0,0.4-8.3,0.4-12.1s5.3-9.4,5.3-10.2&#10;&#9;&#9;s6.4,4.5,6.4,4.5c-2.4,3-6,9.6-6.7,14.3c1.7,1.8,1.5,4,3.5,5.6c8.6-7.1,15.3-13.2,17.4-16.4C399.5,170.7,399.7,168.6,399,166.7z"/>
	<path class="st13_police-9" d="M361,132.4c-0.3-0.2-0.4-0.6-0.3-1l0.4-0.6c0-0.1,0-0.3,0.1-0.4c0.3-0.6,0.7-1.1,1.2-1.4v-3.2l-10.4,2.4v7.9&#10;&#9;&#9;c2.8,1.4,6.2,0.8,8.5-1.4c-0.1-0.2-0.1-0.4,0-0.6C360.6,133.5,360.8,133,361,132.4z"/>
	<path class="st13_police-9" d="M361.2,130.4c0.3-0.7,0.8-1.2,1.4-1.6c0-2.1-0.2-4.9-0.2-4.9l-10.5,7v2.7c0,0,5.9-1.6,8.9-2.3&#10;&#9;&#9;c0.1-0.2,0.2-0.3,0.3-0.5C361.2,130.7,361.2,130.5,361.2,130.4z"/>
	<path class="st8_police-9" d="M361.2,130.4c0.3-0.7,0.8-1.2,1.4-1.6c0-2.1-0.2-4.9-0.2-4.9l-10.5,7v2.7c0,0,5.9-1.6,8.9-2.3&#10;&#9;&#9;c0.1-0.2,0.2-0.3,0.3-0.5C361.2,130.7,361.2,130.5,361.2,130.4z"/>
	<path class="st13_police-9" d="M346.6,113.1c0,0,0.1,16.6,4.2,17.7s8.7-3.1,10.3-5.1s5.5-9.8,4.2-11.9S349.1,110.2,346.6,113.1z"/>
	<path class="st2_police-9" d="M368.5,108.6c-0.2-0.1-0.5-0.2-0.7-0.3c-0.2-0.1-0.5-0.1-0.7-0.2c0.1-0.5,0-1.1-0.1-1.6&#10;&#9;&#9;c-0.5-1.9-2.2-3.4-4.1-3.7c-1.7-0.3-3.5,0.2-4.8,1.3c-0.3-0.3-0.7-0.6-1-0.8c-2.2-1.3-5-1.3-7.1,0.1c-1.1,0.8-1.9,1.9-2.4,3.2&#10;&#9;&#9;c-0.7,3.3-1.1,6.6-1.1,10c2.3,0,4.5-0.5,6.6-1.5c2.6,0.2,5.3,0.7,6.2,3.4l0,0c0.3,0.5,0.5,1.1,0.7,1.6c0.9-1.2,2.5-1.8,3.7-0.6&#10;&#9;&#9;c1,1.1-1.3,4.5-2.2,5.8c-0.1,0.8,0.1,1.6,0.4,2.3c0.2,0.4,0.5,0.7,0.8,1h0.1c2.1-3.4,4.1-6.9,5.2-10.7&#10;&#9;&#9;C368.5,114.8,368.7,111.7,368.5,108.6z"/>
	<path class="st12_police-9" d="M368.4,112.3L347,103l0.1,6.7c0,0,7.8,5.9,11.9,4.9S368.4,112.3,368.4,112.3z"/>
	<path class="st11_police-9" d="M368.4,112.3L347,103l0.1,6.7c0,0,7.8,5.9,11.9,4.9S368.4,112.3,368.4,112.3z"/>
	<path class="st6_police-9" d="M347.2,109.7l0.1-1.7c0,0,6.2,5.8,21.3,4.1l-0.1,1.5c0,0-16.2,0.7-16.6,0.8S347.2,109.7,347.2,109.7z"/>
	<path class="st12_police-9" d="M368.4,116.4c0,0-12.7,2.4-20.3,0.8c-5.4-1.2-5.8-5.5-2.7-6.9l1.8-0.6c3.9,2.7,8.5,4.2,13.2,4.3&#10;&#9;&#9;c7.6,0,8.1-0.4,8.1-0.4L368.4,116.4z"/>
	
		<ellipse transform="matrix(4.274748e-02 -0.9991 0.9991 4.274748e-02 229.1503 453.3612)" class="st6_police-9" cx="351.2" cy="107.1" rx="2.3" ry="1.6"/>
	<path class="st12_police-9" d="M368.6,112.1c0,0-27-7.8-24-12.3s10.6-1.1,16.7,0.7s14.7,8.8,12.9,11S368.6,112.1,368.6,112.1z"/>
	<path class="st2_police-9" d="M360,118.8l-3.6,0.5l-0.7-0.1c-3.1-0.8-6.2-1.6-9.3-2.3c-0.3-0.1-0.6,0.1-0.7,0.4c0,0,0,0,0,0h-0.2&#10;&#9;&#9;c-0.2,0.6-0.3,1.3-0.3,1.9c0,1.9,0.9,3.5,1.9,3.5c0.4,0,0.8-0.2,1-0.5c-0.1,0.4-0.2,0.7-0.2,1.1c0,1.2,1,1.2,1.8,1.7&#10;&#9;&#9;c0.6,0.4,1.1-0.6,0.6-1c-0.2-0.2-0.7-0.2-0.9-0.4c-0.5-0.4-0.2-1.1-0.1-1.6c0.3-1,0.5-2.1,0.8-3.1l0.8,0.2&#10;&#9;&#9;c-0.2,0.5-0.3,1.1-0.3,1.6c0,2.3,1.4,4.1,3,4.1s3-1.8,3-4.1c0-0.1,0-0.2,0-0.4l3.6-0.5C361,119.8,360.8,118.8,360,118.8z"/>
	<path class="st12_police-9" d="M363.1,131.9l-0.7-2.9l0.1-0.4l-5.4,5.8l-5.2,12.2v-15.7l-2,0.3l0.7,5.5l-3.6,2l3.7,17.5l10-15.2l-1.5-2.9&#10;&#9;&#9;C359.5,137.4,363.1,131.9,363.1,131.9z"/>
	<path class="st14_police-9" d="M363.1,131.9l-0.7-2.9l0.1-0.4l-5.4,5.8l-5.2,12.2v-15.7l-2,0.3l0.7,5.5l-3.6,2l3.7,17.5l10-15.2l-1.5-2.9&#10;&#9;&#9;C359.5,137.4,363.1,131.9,363.1,131.9z"/>
	<path class="st13_police-9" d="M365.8,157.9c0.2-0.4,0.4-0.9,0.6-1.2c0-0.3,0-0.5,0-0.5l-8.1-1c0.3,0.5,0.5,1.1,0.7,1.6&#10;&#9;&#9;C361.3,157.2,363.6,157.6,365.8,157.9z"/>
	<path class="st13_police-9" d="M365.1,160.5c0-0.4,0.1-0.9,0.3-1.3c-2-0.3-4-0.6-5.9-0.9c0.1,0.3,0.1,0.7,0.1,1c-0.1,0.9-0.3,1.8-0.8,2.6&#10;&#9;&#9;c0.2,0.9,1.1,3.4,3,3.6c1.6,0.2,3-1.1,3.8-2.4C365.2,162.3,365.1,161.4,365.1,160.5z"/>
	<polygon class="st13_police-9" points="383.7,151.2 385.2,152 386.8,151.2 386.5,152.9 387.7,154.1 386,154.3 385.2,155.9 384.5,154.3 &#10;&#9;&#9;382.8,154.1 384,152.9 &#9;"/>
	<path class="st13_police-9" d="M380.9,153.9c0,0,5.3-5,5.1-5s-1-1.1-1-1.1l-5.1,4.9L380.9,153.9z"/>
	<circle class="st13_police-9" cx="358.3" cy="140.4" r="1"/>
	<ellipse class="st13_police-9" cx="348.8" cy="139.8" rx="0.7" ry="0.9"/>
	<polygon class="st13_police-9" points="347.8,152.5 341.6,149.6 341.6,151.6 347.8,154.5 &#9;"/>
	<path class="st13_police-9" d="M340.5,172.1c-2.1,0.7-3.9,2.1-5,4c-0.6,1.8-1,3.6-1.1,5.5h2.2c0,0,1.8-0.7,1.8,1.4s-0.2,5.6,0.8,5.8&#10;&#9;&#9;s2-7.4,2-7.4L340.5,172.1z"/>
	<path class="st6_police-9" d="M366.4,185.1c0,0-19.4,1.5-25.1-3.8l0.2,7.4c0,0,17.1,6.4,32.1,1.9l0.9-5.9L366.4,185.1z"/>
	<path class="st8_police-9" d="M366.4,185.1c0,0-19.4,1.5-25.1-3.8l0.2,7.4c0,0,17.1,6.4,32.1,1.9l0.9-5.9L366.4,185.1z"/>
	<path class="st13_police-9" d="M377.9,182.7c-0.4,0-2.5-0.1-5.2,0s-7.2,1.3-6.4,2.4s2.8,0.8,4.5,0.7s2.6-0.1,1.9,1.2s-2.4,3.4-3.7,4.1&#10;&#9;&#9;s-2.8,1.1-2.7,2.2s4.5,2.1,8.3,1.1s4.4-4.1,7.6-6.6L377.9,182.7z"/>
	<path class="st6_police-9" d="M344.5,183.8v5.7c0,0.4,0.2,0.7,0.6,0.9c2.5,0.9,5.1,1.3,7.7,1.3c0.6,0,1-0.4,1-1v-5.3c0-0.5-0.5-1-1-0.9&#10;&#9;&#9;c-2.4,0-4.8-0.6-7-1.6c-0.5-0.2-1.1,0.1-1.3,0.6C344.5,183.6,344.5,183.7,344.5,183.8z"/>
</g>
</svg>