<svg version="1.1" id="Layer_1" xmlns="http://www.w3.org/2000/svg" xmlns:xlink="http://www.w3.org/1999/xlink" x="0px" y="0px" viewBox="0 0 500 500" style="width: 181px;" xml:space="preserve" data-imageid="receptionist-29" imageName="Receptionist" class="illustrations_image">
<style type="text/css">
	.st0_receptionist-29{fill:#CFE217;}
	.st1_receptionist-29{fill:url(#SVGID_1_);}
	.st2_receptionist-29{fill:url(#SVGID_00000003794964582256756210000014341731569956163763_);}
	.st3_receptionist-29{fill:#68E1FD;}
	.st4_receptionist-29{fill:#FFFFFF;}
	.st5_receptionist-29{fill:#E57A61;}
	.st6_receptionist-29{fill:#FF9476;}
	.st7_receptionist-29{fill:#FFE9CA;}
	.st8_receptionist-29{fill:#42210B;}
	.st9_receptionist-29{fill:#BC3B1D;}
	.st10_receptionist-29{fill:#822816;}
	.st11_receptionist-29{fill:#9F9A17;}
</style>
<path id="Base_receptionist-29" class="st0_receptionist-29" d="M58.5,352.9l154.2,89.3c10,5.8,22.4,5.8,32.4,0l199.3-115.1c8-4.6,10.7-14.8,6.1-22.8&#10;&#9;c-1.5-2.5-3.6-4.6-6.1-6.1l-158.5-91c-8.1-4.7-18.1-4.7-26.2,0L58.5,324.1c-8,4.6-10.7,14.8-6,22.8C53.9,349.3,56,351.4,58.5,352.9&#10;&#9;L58.5,352.9z"/>
<g id="Shadow_receptionist-29">
	
		<linearGradient id="SVGID_1_-receptionist-29" gradientUnits="userSpaceOnUse" x1="192.8846" y1="1804.1525" x2="172.7146" y2="1841.4625" gradientTransform="matrix(1 0 0 1 0 -1443.47)">
		<stop offset="0" style="stop-color:#9F9A17"/>
		<stop offset="1" style="stop-color:#CFE217"/>
	</linearGradient>
	<polyline class="st1_receptionist-29" points="185.2,332.2 107.2,381.1 186.1,426.7 256.4,381.3 &#9;"/>
	
		<linearGradient id="SVGID_00000176009915968800234450000011100891007267294387_-receptionist-29" gradientUnits="userSpaceOnUse" x1="444.9012" y1="1724.4937" x2="362.1612" y2="1791.8438" gradientTransform="matrix(1 0 0 1 0 -1443.47)">
		<stop offset="0" style="stop-color:#9F9A17"/>
		<stop offset="1" style="stop-color:#CFE217"/>
	</linearGradient>
	<path style="fill:url(#SVGID_00000176009915968800234450000011100891007267294387_);" d="M411.9,302.2L337,340.9&#10;&#9;&#9;c0,0-4.1,4.8,23.8,21.4l76.2-46.8"/>
</g>
<g id="Board_receptionist-29">
	<path class="st3_receptionist-29 targetColor" d="M198.9,58.3L39.4,150.4c-1.3,0.7-2.1,2.1-2.1,3.6v97.2c0,2.3,1.9,4.1,4.2,4.1c0.7,0,1.4-0.2,2-0.5l159-90.5&#10;&#9;&#9;c1.3-0.7,2.1-2.1,2.1-3.5l0.5-41V61.8c0-2.3-1.9-4.1-4.2-4.1c0,0,0,0,0,0C200.3,57.7,199.6,57.9,198.9,58.3z" style="fill: rgb(104, 225, 253);"/>
	
		<ellipse transform="matrix(0.3077 -0.9515 0.9515 0.3077 -99.3442 208.8957)" class="st0_receptionist-29" cx="93.9" cy="172.7" rx="19.4" ry="14.8"/>
	<path class="st4_receptionist-29" d="M136.3,122.8v45.1c0,2.3,1.9,4.1,4.1,4.1c0,0,0,0,0,0c0.7,0,1.3-0.2,1.9-0.5l30.7-16.4&#10;&#9;&#9;c1.3-0.7,2.1-2.1,2.2-3.6l1.1-44.8c0-2.3-1.8-4.2-4.1-4.2c-0.7,0-1.3,0.1-1.9,0.4l-31.8,16.2C137.2,119.9,136.3,121.3,136.3,122.8z&#10;&#9;&#9;"/>
</g>
<g id="Bubble_receptionist-29">
	<path class="st0_receptionist-29" d="M230,128.5v37.4l46.4-26.8c3.4-2,5.6-5.6,5.7-9.6l0.7-29.4c0.1-2.4-1.8-4.5-4.2-4.6c0,0,0,0,0,0&#10;&#9;&#9;c-0.9,0-1.7,0.2-2.5,0.6L235,119.9C231.9,121.7,230,124.9,230,128.5z"/>
	<polyline class="st0_receptionist-29" points="230,165.9 230,179 242.2,155.8 &#9;"/>
</g>
<g id="Desk_and_Receptionist_receptionist-29">
	<polyline class="st5_receptionist-29" points="133.8,277.2 148.2,353.6 227.1,399.4 351.2,322.9 357.5,247.2 &#9;"/>
	<polygon class="st6_receptionist-29" points="133.8,277.2 218.9,327.1 357.5,247.2 272.4,197.2 &#9;"/>
	<polygon class="st0_receptionist-29" points="155.3,272.2 173.3,282.9 190.1,273.6 171.8,262.8 &#9;"/>
	<polygon class="st4_receptionist-29" points="162.4,268.5 176,276.5 188.6,269.5 174.8,261.4 &#9;"/>
	<polygon class="st5_receptionist-29" points="227.1,399.4 219.6,327.1 357.5,247.2 351.2,322.9 &#9;"/>
	<path class="st7_receptionist-29" d="M226.9,255.2c0.1-1.9-0.7-3.7-2.2-4.9c0.7-0.1,1.2-0.8,1.1-1.4c-0.1-0.5-0.4-0.8-0.8-1c-1.9-0.5-3.9-1.3-6-1.7&#10;&#9;&#9;c-0.1-0.1-0.3-0.2-0.4-0.2c-4.1-0.8-7.8-2.7-10.9-5.5c-0.5-0.5-1.4-0.4-1.8,0.1c-0.3,0.3-0.4,0.8-0.3,1.2c-0.5,0.2-0.7,0.7-0.8,1.2&#10;&#9;&#9;c-0.7,0.1-1.2,0.7-1.1,1.4c0,0,0,0,0,0c0,0.3,0.1,0.5,0.3,0.7c0.4,0.5,0.9,0.9,1.4,1.4c0,0.1,0,0.2,0.1,0.2&#10;&#9;&#9;c-0.1,0.1-0.2,0.3-0.3,0.4c-0.5-0.5-1-1-1.5-1.5c-1.2-1-3,0.7-1.8,1.8c1.3,1.3,2.8,2.5,4.4,3.4c2.4,2.1,5.6,3.1,8.8,2.6l0.4,0.2&#10;&#9;&#9;c1.6,1.1,1.5,3,1.7,4.8c0.2,0.7,0.9,1.1,1.6,0.9c0.3-0.1,0.6-0.3,0.8-0.6c0.6-1.8,0.6-3.8,0-5.6c0.9,0.4,1.6,1.1,1.9,2.1&#10;&#9;&#9;c0.3,1.2,0.6,2.4,0.7,3.7c0.3,1.6,2.7,0.9,2.4-0.7l0,0c0.6,0.1,1.2-0.3,1.3-0.9c0-0.1,0-0.2,0-0.3v-0.7c0.6,0.1,1.1-0.4,1.2-1&#10;&#9;&#9;c0,0,0,0,0,0C226.9,255.4,226.9,255.3,226.9,255.2z"/>
	<path class="st7_receptionist-29" d="M251.4,228.6c0.6-1.1-0.2-2.6-0.8-3.5c-1.2-1.7-2.6-3.3-4.3-4.6c-0.5-0.4-1.3-0.4-1.8,0.2&#10;&#9;&#9;c-0.3,0.3-0.3,0.8-0.2,1.2c-0.1-0.1-0.3-0.1-0.4-0.1c-0.3-0.6-0.8-0.9-1.5-1c-1-0.8-2.3,0.4-1.9,1.5c-0.6,0.1-1,0.6-1,1.2&#10;&#9;&#9;c0.1,0.9,0.4,1.9,0.9,2.6c-0.8-0.8-1.6-1.6-2.4-2.4c-1-1-2.8,0.4-1.9,1.6l0.4,0.6c0.1,0.2,0.3,0.3,0.5,0.4l0.6,0.6l0,0&#10;&#9;&#9;c0.7,1.1,1.5,2.1,2.3,3.1c-0.4,0.3-0.5,1-0.2,1.4c0,0,0,0,0,0l0,0c1.5,1.8,4.7,7.4,7.6,4.7c0.7,1,1.4,2,2,3.1&#10;&#9;&#9;c0.4,0.6,1.1,0.8,1.7,0.4c0.2-0.1,0.4-0.3,0.5-0.5c0.4-0.2,0.5-0.6,0.4-1.1c-0.1-0.9-0.4-1.8-0.8-2.6c1.1-0.9,1.3-2.5,0.4-3.6&#10;&#9;&#9;C252.1,230.8,252,229.6,251.4,228.6z"/>
	<path class="st8_receptionist-29" d="M195.8,171.8c-3.6,4.6-6.2,9.9-7.7,15.6c-2.5,9.6-6.9,13.3-5.9,17.4s10.1,0,10.1,0l16.6-8.9"/>
	<path class="st9_receptionist-29" d="M238.5,232.9c2.4-5.9,7.9-10,13.8-12.5l-4.7-3.4c-5.2-4.6-10.2-9.5-15.4-14.2c-5.9-5.3-11.3-12.6-19.6-13.8&#10;&#9;&#9;c-4-0.3-8.1,0.1-12,1.1c-4.3,0.7-8.3,2.7-11.4,5.8c-3.3,3.6-4.6,8.6-5.9,13.1c-1.5,4.8-2.5,9.8-3.1,14.8c-0.4,3.6-0.8,7.9,0.6,11.3&#10;&#9;&#9;c0.9,2.1,2,4,3.3,5.9c4.1,4.2,8.7,7.8,13.8,10.7c1.3,0.8,2.7,1.6,4.1,2.3c3.5-4.8,8.3-8.5,13.9-10.5l-10.6-7.1l19.5-11.4&#10;&#9;&#9;L238.5,232.9z"/>
	<path class="st4_receptionist-29" d="M212.7,189l-0.8,28.8c0,0-7.1-24.9-15.1-28.5l8-2.7"/>
	<path class="st8_receptionist-29" d="M204.3,190.8c-6.5,2.5-13.9-2.7-11.2-14c2.4-10.2,15-9,15-9"/>
	<path class="st7_receptionist-29" d="M206.6,170.4c-5.9-0.3-9.9,7.2-9.7,11.3c0.1,1.5,0.4,3,0.9,4.4c0.1,0,0.3,0.1,0.4,0.1c0.9,0.3,1.6,0.8,2.2,1.5&#10;&#9;&#9;c0.6,0.8,0.8,1.8,1.4,2.7c1,1.4,2.5,2.5,4.2,2.9c0.5,0.1,1,0.1,1.5,0.2c7.9,0.5,7.9-17.4,8.2-18.6&#10;&#9;&#9;C213.3,172.2,210,170.6,206.6,170.4z"/>
	<path class="st8_receptionist-29" d="M206.1,180l7.1-1.4c0.3-1.3,0.4-2.6,0.2-3.9l0.8,3.6h2.6c0,0,1.9-7-6.2-9.8s-15.6,1.6-15.3,8.8&#10;&#9;&#9;c0.1,4.1,1.6,7.9,4.4,10.9c0,0-4-6.8-2.6-3.9c1.7,3.6,3.4-3.2,3.4-5.3l0.9,1.6L206.1,180z"/>
	<path class="st7_receptionist-29" d="M201.7,185.2c0-1.1-0.5-2.1-1.3-2.8c-0.7-0.6-1.9-1.1-2.7-0.4s-0.5,2.1-0.2,3c0.3,1.2,1,2.3,1.8,3.2&#10;&#9;&#9;c0.8,1,2.3-0.4,1.5-1.5c-0.2-0.3-0.5-0.6-0.6-0.9c0.4,0.3,1.1,0.3,1.4-0.1C201.6,185.6,201.6,185.4,201.7,185.2z M199.3,184.2&#10;&#9;&#9;c0.2,0.3,0.3,0.7,0.4,1.1v0.1C199.5,184.9,199.4,184.5,199.3,184.2L199.3,184.2z"/>
	<path class="st8_receptionist-29" d="M204.7,187c-1.9,0.2-3.7-1.2-3.9-3.1c-0.2-1.9,1.2-3.7,3.1-3.9c1.9-0.2,3.7,1.2,3.9,3.1c0,0.1,0,0.3,0,0.4&#10;&#9;&#9;C207.9,185.3,206.5,186.9,204.7,187z M204.7,180.4c-1.7-0.2-3.3,1-3.5,2.7c-0.2,1.7,1,3.3,2.7,3.5c1.7,0.2,3.3-1,3.5-2.7&#10;&#9;&#9;c0-0.1,0-0.3,0-0.4C207.5,181.9,206.3,180.5,204.7,180.4L204.7,180.4z"/>
	<path class="st8_receptionist-29" d="M212.3,185.1c-1.5,0-2.8-1.6-2.8-3.5s1.3-3.5,2.8-3.5s2.8,1.6,2.8,3.5S213.8,185.1,212.3,185.1z M212.3,178.5&#10;&#9;&#9;c-1.3,0-2.4,1.4-2.4,3.1s1.1,3.1,2.4,3.1s2.4-1.4,2.4-3.1S213.6,178.5,212.3,178.5L212.3,178.5z"/>
	<path class="st8_receptionist-29" d="M208.9,182.3c0-0.2-0.2-0.4-0.4-0.4c-0.2,0-0.4,0.2-0.4,0.4c0,0,0,0,0,0c0,0.6,0.1,1.3,0.3,1.9&#10;&#9;&#9;c0.3,0.6,0.5,1.3,0.6,2c-0.4,0.2-0.8,0.3-1.1,0.5c-0.5,0.2-0.3,0.9,0.2,0.7s1.8-0.4,1.7-1.3C209.8,184.8,208.9,183.6,208.9,182.3z"/>
	
		<rect x="207.6" y="183.3" transform="matrix(0.9764 -0.2161 0.2161 0.9764 -34.7241 49.4654)" class="st8_receptionist-29" width="2.4" height="0.4"/>
	<polygon class="st8_receptionist-29" points="201.7,183.4 199.6,182.1 199.7,181.7 201.9,183.1 &#9;"/>
	<path class="st8_receptionist-29" d="M208.5,188.8c-0.8,0.6-1.9,0.5-2.5-0.3c0,0,0,0,0,0l-0.1-0.1c-0.2-0.2-0.6,0.1-0.4,0.4c0.8,1,2.2,1.3,3.2,0.5&#10;&#9;&#9;c0,0,0,0,0,0l0.1-0.1C209.1,188.9,208.7,188.5,208.5,188.8z"/>
	<path class="st10_receptionist-29" d="M222.2,250c-0.3-0.2-0.5,0.2-0.2,0.4c2,1.3,3.3,3.5,3.5,5.9c0,0.3,0.5,0.3,0.5,0&#10;&#9;&#9;C225.7,253.7,224.3,251.4,222.2,250z"/>
	<path class="st10_receptionist-29" d="M220.9,251.4c-0.3-0.2-0.5,0.3-0.2,0.4c2.1,1.3,3.4,3.6,3.5,6.2c0,0.1,0.1,0.2,0.2,0.2c0.1,0,0.2-0.1,0.2-0.2&#10;&#9;&#9;C224.6,255.3,223.2,252.8,220.9,251.4z"/>
	<path class="st10_receptionist-29" d="M225.3,250.1c-2.1-1.7-4.5-3.1-7.1-4.2c-0.3-0.1-0.4,0.4-0.1,0.5c2.5,1,4.8,2.3,6.9,4&#10;&#9;&#9;C225.2,250.7,225.6,250.3,225.3,250.1z"/>
	<path class="st10_receptionist-29" d="M251.5,236c0.9-0.7,1.2-1.9,0.8-2.9c-0.1-0.4-0.3-0.8-0.4-1.2v-0.1c0.8-1.7-0.2-3.2-1-4.7&#10;&#9;&#9;c-0.1-0.3-0.6,0-0.4,0.2c0.6,1.2,1.5,2.5,1.1,3.9c-0.4-1-0.9-1.9-1.6-2.7c-0.2-0.3-0.6,0-0.4,0.2c1,1.3,3.5,5.4,1.6,6.8l-0.1,0.1&#10;&#9;&#9;c-0.8-2.1-1.7-4.1-2.8-6c-0.1-0.3-0.6,0-0.4,0.2c0.8,1.4,1.5,2.9,2.1,4.4c0.3,0.6,0.5,1.3,0.8,1.9c0.1,0.4,0.3,0.7,0.4,1.1&#10;&#9;&#9;s0.2,0.5,0.2,0.6c0.1,0.3,0.1,0.6,0,0.8c-0.1,0.5-0.6,0.7-1.1,0.6c-0.3-0.1-0.5-0.2-0.7-0.5c-0.1,0-0.2-0.3-0.5-0.7l-0.5-0.8&#10;&#9;&#9;l-1.3-2.1l-2.7-4.2c-0.2-0.3-0.6,0-0.4,0.2l4.3,6.8c0.5,0.9,1.6,2.9,3,1.9s0.2-2.9-0.3-3.9C251.2,236.1,251.3,236.1,251.5,236&#10;&#9;&#9;L251.5,236z"/>
	<polygon class="st9_receptionist-29" points="183,239.1 183,249.9 189.1,245.5 &#9;"/>
	<path class="st10_receptionist-29" d="M207,236.4c-2.5-2.6-5-5.2-7.3-8v-6.1c-0.1-0.4-0.4-0.7-0.9-0.6c-0.3,0.1-0.6,0.3-0.6,0.6v4.2l-0.9-1.2&#10;&#9;&#9;c-0.6-0.8-1.6,0.3-1.1,1.1s1.4,1.7,2,2.6c0,0.2,0.2,0.3,0.3,0.4c2.3,2.8,4.8,5.5,7.3,8.1C206.6,238.2,207.6,237.1,207,236.4z"/>
	<polygon class="st10_receptionist-29" points="224.9,224.8 221.9,212.1 219.3,228 &#9;"/>
	<polyline class="st5_receptionist-29" points="201.3,296.9 201.3,302 207,305.3 232.5,290.9 232.5,285.6 &#9;"/>
	<polygon class="st5_receptionist-29" points="201.3,296.9 206.9,299.8 232.5,285.6 225.8,282 &#9;"/>
	<path class="st0_receptionist-29" d="M206.2,298c-1.5-9.1-5.2-17.6-10.9-24.9l21.4-10.4c0,0,7.6,7.3,10.5,23.2L206.2,298z"/>
</g>
<g id="Plant_receptionist-29">
	<path class="st3_receptionist-29 targetColor" d="M393.4,252c-2.9,0.4,10.7,52,20,61.5s21.4,7.2,28.6-3.6s13.6-54.5,13.6-54.5S460.9,243.9,393.4,252z" style="fill: rgb(104, 225, 253);"/>
	<ellipse class="st8_receptionist-29" cx="424.3" cy="252.8" rx="31.3" ry="14.8"/>
	<path class="st0_receptionist-29" d="M390.3,210.3c7.6,8.6-0.3,15.3,0.2,28.9s24.6,14.6,24.6,14.6c-1.3-11.1,18.3-19,17.6-31.8s-17.9-5.9-11.7-19.9&#10;&#9;&#9;s4-32.1-6-38.7c-7.4-4.9-15.9-15.8-19.7-21.1v4.5c0.8,8.3-2.7,17.4-7,24c-3.9,6.1-9.7,11.2-12.8,17.8c-0.3,0.7-0.6,1.4-0.9,2.1&#10;&#9;&#9;C371.7,202.1,383.8,202.9,390.3,210.3z"/>
	<path class="st8_receptionist-29" d="M395.1,148.1c0,0.7-0.1,1.5-0.2,2.2c1.9,3,3.3,6.3,4.3,9.7c2,8.4-2.7,16.7-0.9,25.1c1.6,7.3,7.1,12.7,9.9,19.5&#10;&#9;&#9;c3.5,8.3-0.2,16.1-1.7,24.4c-1.6,9.4,2.5,17.3,7.3,25.2c0.4,0.7,1.5,0,1.1-0.7c-2.5-3.8-4.6-7.9-6.2-12.1c-1.4-4.3-1.6-9-0.6-13.4&#10;&#9;&#9;c1.5-7.4,4.5-14.6,1.9-22.2c-2.4-7-7.9-12.4-10-19.4c-2.5-8.5,2.4-17.1,0.7-25.7c-0.8-4.4-3.1-8.2-5.3-12L395.1,148.1z"/>
	<path class="st0_receptionist-29" d="M469.6,192.5c8-3.3,16-14.8,10.2-21.8s-4.4-17.1-4.4-17.1c-1.3,3.2-3.8,5.7-6.9,7.1&#10;&#9;&#9;c-16.4,5.6-17.8,15.1-18.2,22.3s8.4,22.9-17.8,31.2s-4.4,40-4.4,40l10.1,1.9l0,0c0.3-0.2,7.6-5.3,22.9-11&#10;&#9;&#9;c15.6-5.9,9.8-19.6,2.9-27.6S461.6,195.8,469.6,192.5z"/>
	<path class="st8_receptionist-29" d="M474.9,155.6c-4.1,6-4.9,13.3-6.9,20.2c-2.2,7.4-7,13.2-10.8,19.7c-1.8,3-3.1,6.3-3.9,9.8&#10;&#9;&#9;c-0.7,3.8-0.8,7.6-1.2,11.5c-0.3,4.2-1.5,8.4-3.6,12.1c-2.1,3.4-4.5,6.6-7.1,9.7c-4.4,5.3-8.8,11.2-9.7,18.1h1.3&#10;&#9;&#9;c1-6.8,5.5-12.5,9.8-17.7c4.5-5.5,8.8-11.1,10.1-18.2c1.5-7.9,0.6-15.8,4.5-23c3.3-6.1,8-11.4,10.6-17.9c2.9-7.7,3.2-16.4,8-23.4&#10;&#9;&#9;C476.5,155.5,475.4,154.9,474.9,155.6z"/>
	<path class="st11_receptionist-29" d="M427,256.4c-4.5-10.4-2.1-24.8,5.5-34.3c8-10,12.7-19.4,7.3-30.1c-3.3-6.5-4.9-13.6-4.7-20.9&#10;&#9;&#9;c-8,16.4-16,22.2-14.2,31.1s-0.3,12.9-5.9,26.7c-5.1,12.8,3.2,25.3,4.5,27.1C422,256.2,424.5,256.4,427,256.4z"/>
	<path class="st8_receptionist-29" d="M422.5,256.2l1.5,0.1c-4-10.1-5.9-20.8-0.7-31c2.5-4.8,5.9-9.2,8.1-14.1c2.5-5.3,2.6-10.4,2-16.1&#10;&#9;&#9;c-0.8-7.6,0-15.3,2.4-22.6c0.3-0.8-1-1.1-1.2-0.3c-2.1,6.2-3.1,12.8-2.8,19.4c0.2,3.5,0.9,6.9,0.7,10.4c-0.2,3.2-1.1,6.3-2.5,9.2&#10;&#9;&#9;c-2.5,5.1-6,9.6-8.4,14.6c-2.5,5.4-3.4,11.5-2.6,17.4C419.6,247.7,420.8,252,422.5,256.2z"/>
</g>
<g id="Plant-2_receptionist-29">
	<path class="st11_receptionist-29" d="M316.2,237.5c0.1,4.1,0.4,8.7,2.6,12.3c2.7,4,7.7,5.8,12.3,4.3c6.2-1.9,7-7.7,7.7-13.4c0-0.4,0.1-0.8,0.1-1.2&#10;&#9;&#9;c0.1-0.7,0.2-1.4,0.2-2"/>
	<ellipse class="st8_receptionist-29" cx="327.7" cy="237.5" rx="11.5" ry="5.7"/>
	<path class="st0_receptionist-29" d="M327.5,239.1c0,0,2.8-12-3.1-15.3C324.4,223.8,319.5,230.4,327.5,239.1z"/>
	<path class="st11_receptionist-29" d="M327.5,239.7c0,0-4.8-11.3-11.5-10.5C316,229.2,316,237.4,327.5,239.7z"/>
	<path class="st0_receptionist-29" d="M327.7,239.5c0,0,11.9-3.2,12-10C339.7,229.5,331.6,228.3,327.7,239.5z"/>
	<path class="st11_receptionist-29" d="M327.6,239.4c0,0,7.7-9.6,3.8-15.2C331.4,224.2,324.2,228.1,327.6,239.4z"/>
</g>
</svg>