<svg version="1.1" id="Layer_1" xmlns="http://www.w3.org/2000/svg" xmlns:xlink="http://www.w3.org/1999/xlink" x="0px" y="0px" viewBox="0 0 500 500" style="width: 181px;" xml:space="preserve" data-imageid="creativity-56" imageName="Creativity" class="illustrations_image">
<style type="text/css">
	.st0_creativity-56{fill:#F9C60B;}
	.st1_creativity-56{fill:#DFDDE0;}
	.st2_creativity-56{fill:#EFEFEF;}
	.st3_creativity-56{fill:#8CC63F;}
	.st4_creativity-56{fill:#F9551C;}
	.st5_creativity-56{fill:#68E1FD;}
	.st6_creativity-56{fill:url(#SVGID_1_);}
	.st7_creativity-56{fill:#311F1D;}
	.st8_creativity-56{fill:#F7C19C;}
	.st9_creativity-56{fill:#FFE4D2;}
	.st10_creativity-56{fill:#C24327;}
</style>
<path id="field_creativity-56" class="st0_creativity-56" d="M24.3,259.5l177.5-103.2c2.6-1.5,5.8-1.5,8.4,0l265.4,151.9c4,2.3,5.4,7.4,3.1,11.5&#10;&#9;c-0.7,1.3-1.8,2.4-3.1,3.1l-169.7,98c-8.5,4.9-18.9,4.9-27.4,0L24.3,274c-4-2.3-5.4-7.5-3-11.5C22,261.3,23.1,260.2,24.3,259.5&#10;&#9;L24.3,259.5z"/>
<g id="green_creativity-56">
	<polyline class="st1_creativity-56" points="107.6,247.5 107.6,211.7 151,211.7 151,247.5 &#9;"/>
	<ellipse class="st1_creativity-56" cx="129.3" cy="247.5" rx="21.7" ry="10.6"/>
	<ellipse class="st2_creativity-56" cx="129.3" cy="211.7" rx="21.7" ry="11.3"/>
	<ellipse class="st3_creativity-56" cx="129.3" cy="211.7" rx="17.6" ry="8.6"/>
	<path class="st3_creativity-56" d="M122,217.5l0.7,20c0,0.9,0.7,1.6,1.6,1.6h0.1c0.9,0,1.6-0.7,1.6-1.6l0,0v-1.9c0-0.9,0.7-1.6,1.6-1.6l0,0&#10;&#9;&#9;c0.9,0,1.6,0.7,1.7,1.6v4.6c0,0.9,0.7,1.6,1.6,1.6h0.3c0.9,0,1.6-0.7,1.6-1.6c0,0,0,0,0,0l0,0v-8.4c0-0.9,0.7-1.6,1.6-1.6l0,0&#10;&#9;&#9;c0.9,0,1.6-0.7,1.6-1.6l-0.5-9.8C130.9,218.9,126.4,218.5,122,217.5z"/>
</g>
<g id="red_creativity-56">
	<polyline class="st1_creativity-56" points="336.4,279.7 336.4,243.9 379.7,243.9 379.7,279.7 &#9;"/>
	<ellipse class="st1_creativity-56" cx="358" cy="279.7" rx="21.7" ry="10.6"/>
	<ellipse class="st2_creativity-56" cx="358" cy="243.9" rx="21.7" ry="11.3"/>
	<ellipse class="st4_creativity-56" cx="358" cy="243.9" rx="17.6" ry="8.6"/>
	<path class="st4_creativity-56" d="M350.7,249.8l0.7,20c0,0.9,0.7,1.6,1.6,1.6h0.1c0.9,0,1.6-0.7,1.6-1.6l0,0v-1.9c0-0.9,0.7-1.6,1.6-1.6l0,0&#10;&#9;&#9;c0.9,0,1.6,0.7,1.7,1.6c0,0,0,0,0,0v4.6c0,0.9,0.8,1.6,1.6,1.6h0.3c0.9,0,1.6-0.7,1.6-1.6c0,0,0,0,0,0V264c0-0.9,0.7-1.6,1.6-1.6&#10;&#9;&#9;l0,0c0.9,0,1.6-0.7,1.6-1.6l-0.5-9.8C359.7,251.2,355.1,250.8,350.7,249.8z"/>
</g>
<g id="blue_creativity-56">
	<polyline class="st1_creativity-56" points="107.6,296.6 107.6,260.8 151,260.8 151,296.6 &#9;"/>
	<ellipse class="st1_creativity-56" cx="129.3" cy="296.6" rx="21.7" ry="10.6"/>
	<ellipse class="st2_creativity-56" cx="129.3" cy="260.8" rx="21.7" ry="11.3"/>
	<ellipse class="st5_creativity-56 targetColor" cx="129.3" cy="262.3" rx="17.6" ry="8.6" style="fill: rgb(104, 225, 253);"/>
	<path class="st5_creativity-56 targetColor" d="M122,268.1l0.7,20c0,0.9,0.7,1.6,1.6,1.6h0.1c0.9,0,1.6-0.7,1.6-1.6c0,0,0,0,0,0l0,0v-1.9&#10;&#9;&#9;c0-0.9,0.7-1.6,1.6-1.6l0,0c0.9,0,1.6,0.7,1.7,1.6v4.6c0,0.9,0.7,1.6,1.6,1.6h0.3c0.9,0,1.6-0.7,1.6-1.6c0,0,0,0,0,0l0,0v-8.4&#10;&#9;&#9;c0-0.9,0.7-1.6,1.6-1.6l0,0c0.9,0,1.6-0.7,1.6-1.6l-0.5-9.8C130.9,269.5,126.4,269.1,122,268.1z" style="fill: rgb(104, 225, 253);"/>
</g>
<g id="plant_creativity-56">
	
		<linearGradient id="SVGID_1_-creativity-56" gradientUnits="userSpaceOnUse" x1="430.58" y1="-1876.3601" x2="421.14" y2="-1866.9199" gradientTransform="matrix(1 0 0 1 0 2195.05)">
		<stop offset="0" style="stop-color:#C24327"/>
		<stop offset="1" style="stop-color:#F9C60B"/>
	</linearGradient>
	<path class="st6_creativity-56" d="M426.8,315.4c-6.2,3.7-10.7,6.1-20.4,11.6c7.3,4.4,12.9,8.5,13.7,9l22.1-13.1&#10;&#9;&#9;C440.5,322,434.5,319.2,426.8,315.4z"/>
	<polyline class="st5_creativity-56 targetColor" points="418.2,298.9 418.2,317.2 447.9,317.2 447.9,298.9 &#9;" style="fill: rgb(104, 225, 253);"/>
	<ellipse class="st7_creativity-56" cx="433" cy="298.9" rx="14.8" ry="7.3"/>
	<ellipse class="st5_creativity-56 targetColor" cx="433" cy="317.9" rx="14.8" ry="7.3" style="fill: rgb(104, 225, 253);"/>
	<path class="st7_creativity-56" d="M449.7,256.2c-3.1-1.3-7.5-5.6-11.3-5.4c-1.2,3.6-2,7.4-2.3,11.3c-0.7,6.2-0.9,12.5-0.4,18.8&#10;&#9;&#9;c0.1,1.4,0.2,2.8,0.3,4.2c0,0.4,0.2,0.8,0.3,1.2v14.5c0,0.3,0.1,0.5,0.4,0.5c0.3,0,0.5-0.1,0.5-0.4c0,0,0-0.1,0-0.1v-14&#10;&#9;&#9;c1.5-0.5,2.9-1.2,4.3-2c2.8-1.7,4.9-4.4,6-7.5c2.4-6.7,0.9-14.1,3.2-20.7C450.3,256.4,450,256.3,449.7,256.2z"/>
	<path class="st3_creativity-56" d="M443.2,245.3c-1.8,1-3.2,2.5-4.2,4.3c-0.3,0.4-0.5,0.9-0.7,1.3l-0.1,0.3l0,0c-0.3,0.8-0.5,1.5-0.7,2.3&#10;&#9;&#9;c0.4-0.6,0.9-1.1,1.6-1.3c0.8-0.3,1.6-0.4,2.5-0.2c0.8,0.3,1.6,0.7,2.3,1.2c1.1,0.6,2.1,1.3,3.1,2c4.9,3.1,11.5,3.5,15.3-1.1&#10;&#9;&#9;c0-0.2,0.1-0.4,0.1-0.6C462.9,250.5,454.1,239,443.2,245.3z"/>
	<path class="st7_creativity-56" d="M460,256.1l0.6-0.4c0-0.1,0-0.3-0.1-0.4c-3-3.1-6.2-6.1-10.2-7.6c-2.9-1.1-6.1-1.4-9.2-0.9&#10;&#9;&#9;c-0.3,0.4-0.6,0.8-0.9,1.2c3.5-0.9,7.2-0.6,10.5,0.9c3.5,1.7,6.6,4.1,9.2,7C459.9,256,459.9,256.1,460,256.1z"/>
	<path class="st7_creativity-56" d="M410.2,262.7c-4.4,2.3-7,7-6.6,11.9c0.4,8.8,14.8,0.2,18.6-7.2s4.4,3.1,4.4,3.1"/>
	<path class="st3_creativity-56" d="M423.2,259.7c-2.7,0-5.4,0.3-8,1.1c-1.7,0.4-3.4,1.1-5,2c0.9,0.6,1.9,1.1,2.9,1.5c1.9,0.6,3.5,1.7,4.7,3.3&#10;&#9;&#9;c0.2,0.4,0.4,0.9,0.5,1.3c0.9,2.9,0.1,6.4,1.3,9.3s3.6,5.5,7,5.7c4.1,0.2,5.9-3.6,6.7-7s1.9-8,0.6-11.5&#10;&#9;&#9;C432.5,261.3,427,259.9,423.2,259.7z"/>
	<path class="st7_creativity-56" d="M428.5,273.3c-1.7-5.5-5.3-10.7-10.6-13.2h-0.2l-0.2,0.1l-1,0.2c6.2,2.3,10,8.4,11.6,14.6&#10;&#9;&#9;c2,7.9,1.3,16.6,1.3,24.7c0,0.2,0.3,0.4,0.5,0.4c0.2,0,0.3-0.2,0.4-0.4C430.3,291.1,431.1,281.8,428.5,273.3z"/>
</g>
<g id="painting_creativity-56">
	<path class="st7_creativity-56" d="M200.4,122.4l-23.2,121l-3.4,17.5c-0.5,2.5,3.3,3.5,3.8,1l23.3-121.1l3.4-17.5c0.5-2.5-3.3-3.5-3.8-1&#10;&#9;&#9;L200.4,122.4z"/>
	<path class="st8_creativity-56" d="M237.3,75.6h-8.1l-67.8,32.1c0,0,18.5,135.2,19,136s10.4,4.6,10.4,4.6"/>
	<path class="st7_creativity-56" d="M235.4,200.7l26.8,75.5c0.8,2.4,4.6,1.3,3.8-1l-26.8-75.4C238.3,197.3,234.5,198.4,235.4,200.7L235.4,200.7z"/>
	<polygon class="st9_creativity-56" points="164.9,108.7 184.3,246 252.8,205.7 236.6,75.6 &#9;"/>
	<polygon class="st7_creativity-56" points="183.7,246 190.2,248.4 259.4,207 259.4,203.7 252.5,203.7 183.7,243.6 &#9;"/>
	<path class="st7_creativity-56" d="M193.9,243.8l-2.4,73c-0.1,2.5,3.9,2.5,3.9,0l2.4-72.9C197.9,241.3,194,241.3,193.9,243.8L193.9,243.8z"/>
	<path class="st4_creativity-56" d="M208.2,123.9l0.6-3.7c0.5-2.1-0.8-4.2-2.9-4.8c-1.7-0.4-3.4,0.3-4.3,1.8c-1.7-1.2-4.1-0.9-5.3,0.8c0,0,0,0,0,0&#10;&#9;&#9;c-0.3,0.4-0.5,0.8-0.6,1.3l-0.8,2.9c-0.7,0.4-1.2,1-1.5,1.7c-3.6,8.3-6.8,16.6-6.4,25.8c0.1,1.1,0.6,2.2,1.4,2.9l-0.4,2&#10;&#9;&#9;c-0.5,2.1,0.9,4.2,3,4.7c1.2,0.3,2.4,0,3.3-0.8l-0.4,2.4c-0.9,4.9,6.4,7.1,7.6,2.1l1.1-4.7c1.7,0.1,3.1-1.2,3.2-2.8l3.9-27.8&#10;&#9;&#9;C209.8,126.3,209.3,124.8,208.2,123.9z"/>
	<path class="st3_creativity-56" d="M235.6,171.2c-0.8-11.7-4-23.1-9.2-33.6c-1.9-3.9-7.2-1.5-7.2,2.2c-0.4-0.1-0.9-0.3-1.3-0.4&#10;&#9;&#9;c-4.3-0.9-6.9,4.8-3,7.2c0.9,0.5,1.7,1.1,2.5,1.8c-1.2,1.1-1.3,3-0.2,4.3c4.9,6.3,6,14.7,2.8,22c-1.7,4.2,5,6.8,7.2,3l0.1-0.1&#10;&#9;&#9;c2.2,2,7,0.7,6.7-2.9v-0.2C235.2,173.7,235.8,172.5,235.6,171.2z"/>
	<path class="st5_creativity-56 targetColor" d="M206.4,175c-0.7-0.9-1.8-1.4-2.9-1.5c-7.5-0.5-13.6,3-13.8,11.1c-0.1,5.9,2.4,13.6,8.6,15.4&#10;&#9;&#9;c6.9,2,14-3.9,15.5-10.5C215.2,183.6,212.1,177.4,206.4,175z" style="fill: rgb(104, 225, 253);"/>
</g>
<g id="person_creativity-56">
	<path class="st7_creativity-56" d="M332.1,127.3c0,0,5.6-2.6,8.4,3.1s-73.1,123.3-73.1,123.3l-5.1-5.2C262.2,248.4,298.4,169.5,332.1,127.3z"/>
	<path class="st8_creativity-56" d="M280.8,168.1c0,0,3.8-0.7,4.7-1.9s0-1.9,0-1.9s3.7-1.8,3.2-3S285,157,283,157s-8.5,6.5-8.5,6.5"/>
	<path class="st10_creativity-56" d="M276.2,336.6c-0.1,0.8-0.7,1.3-1.5,1.3c-1.3,0.1-13.9-5.3-17,2c-0.4,0.9,0,2,0.8,2.5c6.2,4,13.3,6.6,20.7,7.6&#10;&#9;&#9;c2.5,0.5,5.1,0.2,7.5-0.9l-0.6-13.9L276.2,336.6z"/>
	<path class="st10_creativity-56" d="M306.5,330.2c0,0-11.8-7.7-13.8-2.8c-1.6,3.8,12.5,14.7,17.6,15.5s5.9-4.6,5.9-4.6l-0.2-8.9"/>
	<path class="st5_creativity-56 targetColor" d="M283.5,218.6c0,0-11.8,25.4-11.6,117c0,0,2.4,6.3,19.4,2l6.9-81.8l3,75.4c0,0,8,5.9,20.4-1.2&#10;&#9;&#9;c0,0-2.8-101-9.6-119.1" style="fill: rgb(104, 225, 253);"/>
	<path class="st10_creativity-56" d="M312.7,213.9c3-12.5,9-44.7,2.5-49.6c-5.7-4.3-18.9,0.4-29,7.2c-8.3,5.6-4.9,38.1-3.5,49.4&#10;&#9;&#9;C293.7,222.3,303.9,220.4,312.7,213.9z"/>
	<path class="st10_creativity-56" d="M315,164.2c0,0,4.1,2,5.7,9.2s4.3,25.2,0.1,30.1s-11.5-2.6-12.1-3.1"/>
	<path class="st10_creativity-56" d="M291,168.6c0,0-15.3,8-15.7,8.1s7.2-5.9,7.2-5.9s-0.9-10.8-8.9-8.2c0,0-25.7,19.8-11.4,32.1&#10;&#9;&#9;c6.9,5.9,28.8-3.5,28.8-3.5"/>
	<path class="st8_creativity-56" d="M287.9,146.1c0,0-0.3,16.6,4.3,17c3.7,0.6,7.4-1.3,9-4.7"/>
	<path class="st8_creativity-56" d="M294.6,161v7.9c0,0,4.2,1.6,10.1-2.3v-6.4"/>
	<path class="st10_creativity-56" d="M288.8,149.2c0,0-5.6-5.9-2-10.8s7.9-2.4,7.9-2.4s0.9-2.2,5.2-2.6s6.1,3.9,7.9,5s4.4,4.3,4.6,6.9&#10;&#9;&#9;s-3.7,17.3-8.3,18.4S293.7,166.5,288.8,149.2z"/>
	<path class="st9_creativity-56" d="M262.2,248.4c0,0-12.5-3.1-16.5,5.2c-4,8.3,1.7,12.5-6.7,18.1s-10.5,3.2-10.5,3.2s28.2,10.3,38.8-21.3"/>
	<path class="st4_creativity-56" d="M256.1,270.9c1.1-2.1-0.5-1.9-2.1-2.7s-1.9-1.7-3-3.2s-1.3-1.3-3-1.4c-0.9,0-1.7-0.3-2.5-0.7&#10;&#9;&#9;c-0.6-0.5-1.1-1-1.4-1.7c-0.1,4,0.4,7.1-5.1,10.8c-4.6,3-7.3,3.7-8.8,3.7C234.6,276.6,246.3,278.6,256.1,270.9z"/>
</g>
</svg>