<svg xmlns="http://www.w3.org/2000/svg" viewBox="0 0 2623 1687"><path fill="#FAD28C" d="M2220 0h3c41 0 81 5 120 14l3 1a464 464 0 0 1 233 132l1 2a170 170 0 0 1 43 108 190 190 0 0 1-51 134c-20 21-47 30-75 31-70 2-141-10-210-20h-2a4972 4972 0 0 1-39-4h-13c-52 0-112 4-152 42-35 36-42 90-50 137-13 83-37 178-97 240l-2 2c-32 34-81 44-125 46h-18l1 4a381 381 0 0 1 9 49c1 17 4 29 13 43l9 17 1 2c37 72 62 151 79 271v2c5 49 5 99 0 147v2a548 548 0 0 1-21 102c-13 44-35 86-73 113l-2 1c-26 19-58 34-91 34h-2c-11 0-21-2-29-10-10-11-11-25-11-40l1-17c4-45-9-90-36-126l-11 15c-15 23-31 45-49 66l-1 2a479 479 0 0 1-38 41l-3 3-15 14-3 3c-21 18-45 32-70 45l-2 1c-37 19-78 32-119 37h-2c-30 4-66 2-90-16-7-7-11-13-11-22 0-20 11-35 22-50 16-22 27-45 32-71l1-2a207 207 0 0 0 3-47v-51h-3l-52-1h-3c-79-5-156-17-234-29-93-16-93-16-186-21h-3c-37 0-76 3-104 30-32 32-49 87-62 130-7 20-14 39-28 55l-1 2c-17 20-36 35-59 48l-2 1c-26 15-55 25-85 30l-4 1c-25 4-53 3-75-11-7-6-10-13-11-22-1-6 0-12 2-18v-2l8-27a11916 11916 0 0 0 14-40c12-33 22-66 27-101v-2c8-56-13-105-45-150l-8 4-2 1-3 2-2 2a2236 2236 0 0 0-12 9c-30 22-57 46-75 78l-1 2c-16 27-23 58-15 89l4 13c3 6 4 11 2 17-3 6-9 8-15 10-23 1-41-6-59-21-22-21-36-49-50-75l-2-3c-32-63-57-135-38-206l1-2c7-26 22-49 38-69l1-2 26-27 2-2 17-16 10-9a16447 16447 0 0 1 15-15l2-1c2-3 4-4 7-5l-1-2a764 764 0 0 1-53-342v-2l1-50-2-1c-50-20-96-49-123-97l-2-3c-12-22-19-47-22-72v-3c-5-52 8-102 28-150l-3-3a133 133 0 0 1-41-97v-3a297 297 0 0 1 5-63c6-33 16-65 31-95a254 254 0 0 1 136 56c12 9 24 19 32 31l2-1c14-7 28-14 43-19l2-1c30-11 61-15 92-15h3a238 238 0 0 1 45 4c28 4 55 13 79 26l5 1c3-1 4-3 5-4a260 260 0 0 1 160-78l11 26 1 2c14 36 24 75 25 115v3c1 25-3 51-14 74l-1 2c-6 12-13 22-22 32l1 3c27 64 45 138 18 206l-6 16-1 2-11 18 3 1a3852 3852 0 0 1 25 5l2 1c6 1 6 1 8 3l5 1 3 1a1786258842 1786258842 0 0 0 18 3h4c47 9 94 15 141 17h2a1040 1040 0 0 0 61 1c59 0 118-2 176-5 127-5 127-5 185-5h9c29 0 59 0 89 2h3c88 6 193 13 308 87l3 3 3 2 2 2 11 10c8 11 8 11 19 16l10-3 6-2a129 129 0 0 0 79-71l2-3c8-17 14-35 17-53v-2c6-31 4-64 0-95l-1-4-8-51-1-3-4-23c-5-28-9-55-9-83v-2a301 301 0 0 1 140-262l2-1 13-8 2-1c64-38 139-61 213-67h3l35-1Z"/><path fill="#FAD28C" d="M2220 0h3c41 0 81 5 120 14l3 1a464 464 0 0 1 233 132l1 2c26 30 42 65 43 105v3a190 190 0 0 1-51 134c-20 21-47 30-75 31-70 2-141-10-210-20h-2a4972 4972 0 0 1-39-4h-13c-52 0-112 4-152 42-35 36-42 90-50 137-10 62-25 122-54 178-21-4-42-11-62-18l-4-1c-83-28-83-28-110-50a212 212 0 0 0 34-83v-2c6-31 4-64 0-95l-1-4-8-51-1-3-4-23c-5-28-9-55-9-83v-2a301 301 0 0 1 140-262l2-1 13-8 2-1c64-38 139-61 213-67h3l35-1Z"/><path fill="#E7AD49" d="m2340 14 15 3 3 1a468 468 0 0 1 222 131 170 170 0 0 1 43 108c1 49-16 96-49 132l-2 2c-20 21-47 30-75 31-70 2-141-10-210-20h-2a4972 4972 0 0 1-42-4l-4-1h-13l-1-9v-2a1193 1193 0 0 1-1-9c-2-87 19-174 99-348a271 271 0 0 0 6-9l2-4c4-3 5-3 9-2Zm-540 929c4 1 4 2 6 6l2 3 1 4a3576 3576 0 0 0 11 20c40 74 65 157 81 275v2c5 49 5 99 0 147v2a548 548 0 0 1-21 102c-13 44-35 86-73 113l-2 1c-26 19-58 34-91 34h-2c-11 0-21-2-29-10-10-11-11-25-11-40l1-17c4-43-7-89-35-123l-1-6c1-4 4-7 6-11a1034 1034 0 0 0 85-161c14-33 27-66 39-100l1-3c15-44 23-90 29-136v-2c4-33 3-67 3-100Z"/><path fill="#E8AD49" d="m1819 274 8 10a714 714 0 0 0 70 77l7 6a394 394 0 0 0 55 42c33 21 69 39 106 51l-4 10c-20 39-26 81-32 123-9 56-26 111-52 162-21-4-42-11-62-18l-4-1c-83-28-83-28-110-50a212 212 0 0 0 34-83v-2c6-31 4-64 0-95l-1-4-8-51-1-3-4-23a440 440 0 0 1-5-138v-6l1-2 2-5Z"/><path fill="#E7AD48" d="m218 1073 5 7 1 3 2 3c24 51 54 99 91 141l5 7a1377 1377 0 0 0 47 56l2 1c3 5 3 5 3 8a74 74 0 0 1-10 7l-2 2-10 7-2 2-6 4-2 1-24 20-2 1c-17 16-32 33-43 53l-1 2c-16 27-23 58-15 89l4 13c3 6 4 11 2 17-3 6-9 8-15 10-23 1-41-6-59-21-22-21-36-49-50-75l-2-3c-32-63-57-135-38-206l1-2c7-26 22-49 38-69l1-2 26-27 2-2 17-16 10-9a11943 11943 0 0 1 15-15l2-1 7-6Z"/><path fill="#FBD38D" d="M2339 13v1h-5l-1 2-5 8c-31 39-49 86-65 133l-1 2c-26 77-40 157-36 238h-2a69315 69315 0 0 0-33 3h-3l-18 2c-17-38-25-78-34-118l-1-8-1-2-7-29c-16-69-30-139-19-209l1-4a320 320 0 0 1 3-13v-3l1-2c2-3 4-3 7-4l6-1 3-1h4l4-1 34-5h3c55-6 111-1 165 11Z"/><path fill="#E7AE49" d="M2114 12v2c-5 22-8 44-9 67v2c-1 53 10 106 22 157a4532 4532 0 0 1 11 46l5 20a463 463 0 0 0 27 96h-2c-21 4-41 8-59 19h-5l-6-5-2-2-2-2-3-2-13-15-2-2-23-31-1-2c-37-58-49-125-57-192l-1-3c-11-89-11-89-3-109l4-2 3-2 3-1 3-2c82-37 82-37 110-37Z"/><path fill="#E7AD49" d="M1237 613h2a1734 1734 0 0 1 112 1 155 155 0 0 1 2 30c0 24-3 49-5 73l-2 21c-11 111-11 111-41 154l-1 2-15 19a562 562 0 0 0-36 54c-9 15-20 28-37 34h-12l-6-2v-2l10-114 1-14v-3a2188655 2188655 0 0 1 13-160v-3a5121 5121 0 0 0 2-30v-6a1412 1412 0 0 1 1-46v-6c4-3 7-2 12-2ZM2513 92c5 1 9 3 13 7l2 1 5 4 3 2a326 326 0 0 1 43 41l1 2c26 30 42 65 43 105v3a190 190 0 0 1-51 134 99 99 0 0 1-61 30l-22 1c-8-29-15-58-19-87v-2a411 411 0 0 1 20-197l1-2c6-15 13-29 22-42Z"/><path fill="#FAD28C" d="m2403 33 18 6 2 1c33 14 65 31 94 52h-2c-3 1-3 2-4 4l-2 3-1 2-1 3-4 7-1 2c-17 31-26 65-32 100v2c-3 18-3 35-3 53v3c0 19 0 37 3 55l1 4c3 26 9 52 15 78l1 4 1 3 1 7c-37 1-74-4-111-8-10-23-13-45-13-70v-2c0-85 16-172 36-291v-3a837 837 0 0 1 2-15Z"/><path fill="#E7AD49" d="M1048 620c1 40-11 78-23 116l-20 68-1 3-7 49a117 117 0 0 1-54 95l-2 1c-20 16-44 33-71 30-6-1-11-4-15-9-2-4-1-7 0-11 5-11 11-20 19-29 19-25 33-49 33-82v-3a2347 2347 0 0 0-1-67v-3c0-28 4-51 15-77l1-2a355 355 0 0 1 26-51l2-3 2-4 1-3 7-15a281676 281676 0 0 1 77-3h11Zm152-6c4 18 5 37 5 55v3c0 16-1 31-3 47l-1 3c-10 65-34 146-77 197l-2 3c-9 10-19 18-33 20-11 1-20-1-29-7-9-8-11-19-12-30-2-33 7-63 16-94l15-57v-2c9-45 16-89 23-134a2396 2396 0 0 1 77-4h21Zm619-340 8 10a714 714 0 0 0 70 77l7 6a394 394 0 0 0 55 42c33 21 69 39 106 51l-4 10c-14 26-21 55-26 84-67-11-155-30-205-80l-1-7-1-2a1413 1413 0 0 1-16-125c0-18 1-36 4-53v-6l1-2 2-5ZM836 622a767 767 0 0 1 45 1h12l22 1-6 36v3a16191 16191 0 0 1-6 30c-17 94-17 94-50 129l-2 2c-16 17-38 29-60 37l-2 1c-18 6-38 10-57 12h-3l-27 1h-3c-23 0-23 0-32-7-3-3-3-4-3-8a3984 3984 0 0 0 14-21l2-3a513 513 0 0 0 28-36 1065 1065 0 0 1 94-108c18-20 27-44 34-70Z"/><path fill="#FAD28C" d="m1831 475 14 9a474 474 0 0 0 189 70 164 164 0 0 1-4 33 3213 3213 0 0 0-8 41 505 505 0 0 1-185-35v-2l1-32v-3c0-25-3-50-7-75v-6Z"/><path fill="#F9F6DD" d="M64 147a76 76 0 0 1 23 4c24 8 59 23 73 45 1 5 0 10-3 15l-7 6-10 9a352 352 0 0 1-19 17l-3 3a173 173 0 0 0-19 21c-9 10-17 22-24 33-8-1-12-7-17-13-16-24-18-53-13-80 9-50 9-50 19-60Z"/><path fill="#E7AD49" d="m1928 97 11 38v3c10 40 17 82 23 123v3a2290 2290 0 0 1 4 33 178 178 0 0 1-29-29l-15-17-8-10a327 327 0 0 1-20-25c-9-11-17-22-24-34l-2-2-4-6-1-2-4-6a265 265 0 0 1 60-65c6-4 6-4 9-4Z"/><path fill="#F9F6DD" d="M613 148a55 55 0 0 1 5 11c14 35 24 79 8 115-4 8-9 15-15 21-4-1-5-4-7-7a293 293 0 0 0-43-51l-3-2a255 255 0 0 0-42-35c1-8 7-12 13-16 21-17 45-30 71-36h2c8-2 8-2 11 0Z"/><path fill="#E7AD49" d="M641 591h5a477 477 0 0 1 31 7l-13 16-3 2a299 299 0 0 1-81 64l-2 1c-52 30-114 43-174 43h-2c-42 0-84-7-123-21l8-1 3 1h4a585 585 0 0 0 123-2c23-3 46-7 68-13l3-1c44-12 88-31 122-63l5-4c8-7 16-18 22-27l4-2ZM342 142h8c23 0 23 0 27 2l-4 9c-12 25-20 50-20 78-1 35-1 35-11 45-3 3-5 5-10 5-4 0-7-3-10-6l-3-8-2-6-1-2-5-14-2-5-1-3c-24-61-24-61-24-89l10-2h3c15-3 30-4 45-4Z"/><path fill="#DE9A42" d="m568 486 3 2c11 6 20 17 24 30 3 15 0 28-8 41-7 10-17 17-28 20-16 2-29 0-42-9-10-8-16-18-19-30-2-16 1-29 11-42 14-16 40-22 59-12Zm-426 2c12 8 21 19 24 33 1 15-1 28-10 40-8 10-18 17-31 18-10 1-20 1-29-4l-3-1c-11-7-19-16-23-28-4-14-3-28 4-40 7-11 17-19 29-23 13-3 27-2 39 5Z"/><path fill="#3E1801" d="M310 512h3l5 2c14 4 26 2 39-2a1490 1490 0 0 1 12-3c10-3 20-4 30 2 3 3 6 6 6 10 0 6 0 9-4 14-8 9-20 11-32 13-8 2-15 5-22 11-3 2-4 2-7 2 1 14 1 14 9 25 5 3 10 4 17 2 4-2 7-4 10-8l7-1c2 2 3 3 3 6-3 7-8 10-14 13-8 3-18 3-25 1l-11-9-1-2h-2l-3 4c-5 6-10 8-18 8-11 1-18-2-26-9l-4-5c0-3 1-5 3-7h5l3 3c4 5 8 6 14 7 5 0 9-1 14-3 6-7 7-16 8-25h-3c-4-1-7-3-10-6-8-6-18-7-27-9-8-2-17-4-22-11l-2-2c-3-5-3-9-2-14 3-6 7-8 12-11 11-4 24 1 35 4Z"/><path fill="#E7AD49" d="M412 150c15 4 30 9 44 15l-8 14c-16 22-29 46-40 72-6 11-13 24-25 29l-8 1a3521 3521 0 0 1-1-17 146 146 0 0 1 38-114Z"/><path fill="#3D1700" d="M521 421c6 5 11 11 12 19 1 10-1 18-7 25-6 6-12 10-20 11-9 0-17-2-24-8-7-8-10-15-10-26 2-11 7-18 16-24 11-6 23-4 33 3Zm-342 0c7 5 11 12 12 21 1 10-1 16-7 23-7 7-14 11-23 11s-16-3-22-9c-7-9-9-17-8-29 2-8 7-14 13-19 12-6 24-6 35 2Z"/><path fill="#E7AD49" d="M256 156c3 2 4 4 5 7l1 2c5 12 9 23 11 36v2a1508 1508 0 0 1 5 42v3l1 17c-8-2-12-9-16-16a816 816 0 0 1-15-26c-10-17-20-37-19-57l20-8 3-1 4-1Z"/></svg>