<svg xmlns="http://www.w3.org/2000/svg" viewBox="0 0 2623 1687"><path fill="#E3882C" d="M2220 0h3c41 0 81 5 120 14l3 1a464 464 0 0 1 233 132l1 2a170 170 0 0 1 43 108 190 190 0 0 1-51 134c-20 21-47 30-75 31-70 2-141-10-210-20h-2a4972 4972 0 0 1-39-4h-13c-52 0-112 4-152 42-35 36-42 90-50 137-13 83-37 178-97 240l-2 2c-32 34-81 44-125 46h-18l1 4a381 381 0 0 1 9 49c1 17 4 29 13 43l9 17 1 2c37 72 62 151 79 271v2c5 49 5 99 0 147v2a548 548 0 0 1-21 102c-13 44-35 86-73 113l-2 1c-26 19-58 34-91 34h-2c-11 0-21-2-29-10-10-11-11-25-11-40l1-17c4-45-9-90-36-126l-11 15c-15 23-31 45-49 66l-1 2a479 479 0 0 1-38 41l-3 3-15 14-3 3c-21 18-45 32-70 45l-2 1c-37 19-78 32-119 37h-2c-30 4-66 2-90-16-7-7-11-13-11-22 0-20 11-35 22-50 16-22 27-45 32-71l1-2a207 207 0 0 0 3-47v-51h-3l-52-1h-3c-79-5-156-17-234-29-93-16-93-16-186-21h-3c-37 0-76 3-104 30-32 32-49 87-62 130-7 20-14 39-28 55l-1 2c-17 20-36 35-59 48l-2 1c-26 15-55 25-85 30l-4 1c-25 4-53 3-75-11-7-6-10-13-11-22-1-6 0-12 2-18v-2l8-27a11916 11916 0 0 0 14-40c12-33 22-66 27-101v-2c8-56-13-105-45-150l-8 4-2 1-3 2-2 2a2236 2236 0 0 0-12 9c-30 22-57 46-75 78l-1 2c-16 27-23 58-15 89l4 13c3 6 4 11 2 17-3 6-9 8-15 10-23 1-41-6-59-21-22-21-36-49-50-75l-2-3c-32-63-57-135-38-206l1-2c7-26 22-49 38-69l1-2 26-27 2-2 17-16 10-9a16447 16447 0 0 1 15-15l2-1c2-3 4-4 7-5l-1-2a764 764 0 0 1-53-342v-2l1-50-2-1c-50-20-96-49-123-97l-2-3c-12-22-19-47-22-72v-3c-5-52 8-102 28-150l-3-3a133 133 0 0 1-41-97v-3a297 297 0 0 1 5-63c6-33 16-65 31-95a254 254 0 0 1 136 56c12 9 24 19 32 31l2-1c14-7 28-14 43-19l2-1c30-11 61-15 92-15h3a238 238 0 0 1 45 4c28 4 55 13 79 26l5 1c3-1 4-3 5-4a260 260 0 0 1 160-78l11 26 1 2c14 36 24 75 25 115v3c1 25-3 51-14 74l-1 2c-6 12-13 22-22 32l1 3c27 64 45 138 18 206l-6 16-1 2-11 18 3 1a3852 3852 0 0 1 25 5l2 1c6 1 6 1 8 3l5 1 3 1a1786258842 1786258842 0 0 0 18 3h4c47 9 94 15 141 17h2a1040 1040 0 0 0 61 1c59 0 118-2 176-5 127-5 127-5 185-5h9c29 0 59 0 89 2h3c88 6 193 13 308 87l3 3 3 2 2 2 11 10c8 11 8 11 19 16l10-3 6-2a129 129 0 0 0 79-71l2-3c8-17 14-35 17-53v-2c6-31 4-64 0-95l-1-4-8-51-1-3-4-23c-5-28-9-55-9-83v-2a301 301 0 0 1 140-262l2-1 13-8 2-1c64-38 139-61 213-67h3l35-1Z"/><path fill="#D37F28" d="M2220 0h3c41 0 81 5 120 14l3 1a464 464 0 0 1 233 132l1 2c26 30 42 65 43 105v3a190 190 0 0 1-51 134c-20 21-47 30-75 31-70 2-141-10-210-20h-2a4972 4972 0 0 1-39-4h-13c-52 0-112 4-152 42-35 36-42 90-50 137-10 62-25 122-54 178-56-12-132-31-176-69a212 212 0 0 0 34-83v-2c6-31 4-64 0-95l-1-4-8-51-1-3-4-23c-5-28-9-55-9-83v-2a301 301 0 0 1 140-262l2-1 13-8 2-1c64-38 139-61 213-67h3l35-1Z"/><path fill="#B36B27" d="m1801 943 6 8 1 3 2 3 2 3a3125 3125 0 0 1 8 16c40 74 64 157 81 275v2c5 49 5 99 0 147v2a548 548 0 0 1-21 102c-13 44-35 86-73 113l-2 1c-26 19-58 34-91 34h-2c-11 0-21-2-29-10-10-11-11-25-11-40l1-17c4-43-7-89-35-123l-1-5 3-7 2-3 2-2 1-3 3-5c17-28 32-56 47-84l1-2a1108 1108 0 0 0 70-164l1-3c6-16 10-31 14-47l1-3c9-40 16-80 18-121v-2a800 800 0 0 0 1-68Z"/><path fill="#C57725" d="m1818 273 11 13a443 443 0 0 0 70 77 323 323 0 0 0 23 19c19 15 40 29 61 41l3 2c25 14 52 25 79 35l-4 10c-20 39-26 81-32 123-9 56-26 111-52 162-56-12-132-31-176-69a212 212 0 0 0 34-83v-2c6-31 4-64 0-95l-1-4-8-51-1-3-4-23a440 440 0 0 1-3-152Z"/><path fill="#B36B27" d="M218 1073c3 1 3 3 4 6l2 3 1 3 16 32 1 2a612 612 0 0 0 92 128l8 11a462 462 0 0 0 22 26l1 1c9 11 9 11 9 14a112 112 0 0 1-10 7l-2 2-18 13-2 1-24 20-2 1c-17 16-32 33-43 53l-1 2c-16 27-23 58-15 89l4 13c3 6 4 11 2 17-3 6-9 8-15 10-23 1-41-6-59-21-22-21-36-49-50-75l-2-3c-32-63-57-135-38-206l1-2c7-26 22-49 38-69l1-2 26-27 2-2 17-16 10-9a11943 11943 0 0 1 15-15l2-1 7-6Z"/><path fill="#E3882B" d="M2339 13v1h-2c-4 1-4 2-6 5l-2 2-2 3-2 2-19 30-2 3a599 599 0 0 0-58 156c-18 58-23 121-20 182h-2a69315 69315 0 0 0-33 3h-3l-18 2c-14-31-22-64-29-98l-12-52c-17-71-34-146-20-219v-3l2-7 1-3 3-9 5-1 3-1h3l4-1c13-3 27-4 41-6h3c55-7 111-1 165 11Z"/><path fill="#C57725" d="M2114 12v2c-5 22-8 44-9 67v2c-2 61 13 120 28 179a1112 1112 0 0 1 19 86 268 268 0 0 0 18 54h-2c-21 4-41 8-59 19h-5l-6-5-3-2-2-3-3-3-14-15-7-9a242 242 0 0 1-18-25c-33-52-46-113-54-173v-2a737 737 0 0 1-8-115c0-11 0-11 4-15l8-4 3-1a299 299 0 0 1 17-7c71-30 71-30 93-30Zm-877 601h2a3316 3316 0 0 1 112 1c2 9 2 18 2 28v2c0 24-3 48-5 73a3612 3612 0 0 0-2 16v2a2381 2381 0 0 1-8 73c-2 14-5 26-9 39l-1 3a220 220 0 0 1-37 61l-5 8c-12 15-23 31-34 48-8 15-19 29-36 34-6 1-13 2-18-2 6-83 6-83 10-118a3789 3789 0 0 0 6-77v-3a6645 6645 0 0 1 9-102l2-51v-34l12-1ZM2513 92c5 1 9 3 13 7l2 1 5 4 3 2a326 326 0 0 1 43 41l1 2c26 30 42 65 43 105v3a190 190 0 0 1-51 134 103 103 0 0 1-83 31l-9-35-1-2c-7-33-13-68-13-102v-3a2993 2993 0 0 1 0-17 325 325 0 0 1 47-171Z"/><path fill="#E3882B" d="m2403 33 18 6 2 1c33 14 65 31 94 52h-2c-3 1-3 2-5 5l-1 3-2 3-1 2c-13 24-22 48-29 74l-1 3c-3 10-5 21-6 32l-1 3a360 360 0 0 0-2 55 408 408 0 0 0 4 61 577 577 0 0 0 18 89c-37 1-74-4-111-8-9-23-13-44-13-70v-2c0-72 12-144 23-215l1-4a11255 11255 0 0 1 12-75l1-4 1-2v-9Z"/><path fill="#C57725" d="M1048 620a255 255 0 0 1-10 74 306 306 0 0 1-14 46 1727 1727 0 0 1-19 64l-1 3c-4 16-5 32-7 49-2 26-7 50-26 70l-2 2c-21 23-57 53-89 55-9 0-16-2-23-7-2-3-3-5-3-9 2-13 13-26 21-36 19-24 32-48 32-80v-3a2347 2347 0 0 0-1-73c0-27 0-27 3-39v-3c6-24 19-47 31-69l9-18 2-3 7-14 1-4 1-2a281676 281676 0 0 1 77-3h11Zm152-6c4 18 5 35 5 53v3c0 85-30 195-88 257a51 51 0 0 1-38 15c-10 0-18-5-24-12l-4-8-1-3c-4-17-3-36 0-53l1-4c3-18 8-35 13-52a993 993 0 0 0 38-192 2396 2396 0 0 1 77-4h21Zm-364 8a767 767 0 0 1 45 1h12l22 1a864 864 0 0 1-10 61l-1 3-4 23c-7 41-16 78-45 109l-2 3c-25 25-60 40-94 47l-4 1a258 258 0 0 1-55 4c-24 1-24 1-32-6l-4-6c0-10 9-18 15-25l9-12a1078 1078 0 0 1 79-96l15-15a235 235 0 0 0 16-17c19-23 31-47 38-76Zm1001-29 12 5c20 10 43 14 65 19l3 1c34 7 69 8 103 10 0 5 0 10-2 15v2l-2 6v3c-10 35-23 68-39 101-56-12-132-31-176-69a212 212 0 0 0 34-83l1-3 1-7Z"/><path fill="#E3882B" d="m1831 475 14 9a328 328 0 0 0 85 42l3 1c28 10 57 18 87 23l3 1a961 961 0 0 0 11 3 2684 2684 0 0 0-13 78l-1-4h-2c-59 0-128-6-181-35v-2l1-32v-3c0-25-3-50-7-75v-6Z"/><path fill="#F9F6DD" d="M63 147c9 0 17 2 26 5l4 1a152 152 0 0 1 30 14c13 7 31 17 38 31l-1 5-1 4c-2 6-8 10-13 14a154 154 0 0 0-15 12 212 212 0 0 0-25 26c-11 12-21 25-29 39-2 2-2 2-5 2-5 0-9-7-13-11a91 91 0 0 1-16-56v-2c0-15 1-28 5-42l1-3c3-13 8-26 14-39Zm550 0c14 33 28 72 19 108v2c-4 15-10 27-21 38-4-2-6-5-8-8a293 293 0 0 0-33-40l-24-23-3-2-27-22c1-9 9-14 15-19 20-14 43-27 67-32l3-1 12-1Z"/><path fill="#C57725" d="m1928 97 8 25v2a957 957 0 0 1 13 58 1885 1885 0 0 1 17 115 193 193 0 0 1-31-32 292 292 0 0 1-21-24 459 459 0 0 1-45-60l-2-2-8-13a265 265 0 0 1 60-65c6-4 6-4 9-4Z"/><path fill="#B36B27" d="M639 591a163 163 0 0 1 29 5l9 2-1 2h-2l-1 2-6 8-1 2a254 254 0 0 1-39 37c-16 13-34 24-53 34l-3 2a354 354 0 0 1-123 37h-3c-13 2-27 2-41 2h-2c-41 0-82-6-120-20v-1a132404419 132404419 0 0 0 75 2h3c50-1 101-8 149-24l3-1a263 263 0 0 0 103-61c8-6 13-14 19-22l2-1 3-5Z"/><path fill="#C57725" d="M342 142h8c23 0 23 0 27 2-1 5-3 9-6 13-7 14-12 28-15 43v2c-3 12-3 25-4 37 0 13-1 27-10 37-3 3-5 5-10 5-4 0-5 0-8-3a546 546 0 0 0-17-43c-8-20-15-39-20-60l-1-2-2-17v-8l10-2h3c15-3 30-4 45-4Z"/><path fill="#E4712A" d="M576 490c12 10 18 22 20 38 1 13-4 26-13 36a52 52 0 0 1-36 16c-15 0-26-6-37-16-9-10-13-23-13-37 2-15 9-27 20-37 17-12 41-12 59 0Zm-424 5c10 10 14 23 14 37s-6 25-15 35a53 53 0 0 1-38 13c-13-1-25-7-33-17a57 57 0 0 1-12-42c3-13 11-25 22-32 21-13 44-10 62 6Z"/><path fill="#3B1600" d="M322 515a44 44 0 0 0 13 1c10 0 19-2 28-5 6-2 12-3 19-3h3c6 0 11 1 16 6 3 3 4 6 4 11-1 6-4 11-9 15-7 4-15 5-23 7-10 2-18 5-26 12l-8 2c1 13 1 13 8 24 6 4 10 5 16 4s9-4 13-8l6-2 3 2-1 8a32 32 0 0 1-45 4l-4-5c-3 1-3 1-5 4-4 5-10 7-16 8-9 1-17 0-24-6-7-5-7-5-7-10v-3l5-2 7 4c4 4 8 6 13 6 6 0 10-2 14-5 5-7 6-15 7-23h-3l-8-5c-8-6-17-8-27-10s-18-4-25-12c-3-5-4-9-3-15 10-21 42-9 59-4Z"/><path fill="#C57725" d="m411 150 24 7 3 1 18 7-4 8-1 2-2 2-19 30-1 3c-6 8-10 18-15 27l-1 2-5 10c-5 12-12 26-25 31l-8 1c-3-26-4-52 4-77l1-3a186 186 0 0 1 31-51Z"/><path fill="#3B1500" d="M519 419c7 6 12 12 14 21 1 9-1 18-7 25-7 7-14 10-24 10-8 0-14-2-20-7l-2-3-2-2c-5-8-6-16-5-25 3-9 8-16 16-20 9-4 21-4 30 1Zm-339 2c5 4 10 11 11 18 1 10-1 18-7 26-5 6-12 10-20 10-11 0-18-2-26-10-6-6-7-14-7-23 0-8 4-15 10-20 13-9 26-9 39-1Z"/><path fill="#C57725" d="M256 156c3 2 4 5 5 8l1 2a173 173 0 0 1 14 63v2a448 448 0 0 0 3 34c-4 0-6-3-9-6l-5-7-1-2a437 437 0 0 1-16-27c-10-18-19-37-19-57l20-8 3-1 4-1Z"/></svg>